<svg width="192" height="83" viewBox="0 0 192 83" fill="none" xmlns="http://www.w3.org/2000/svg">
<g clip-path="url(#clip0_102_2105)">
<path fill-rule="evenodd" clip-rule="evenodd" d="M101.459 19.4743L98.5005 23.0166C98.115 23.4751 97.6566 23.8501 97.1356 24.121V24.7982C97.1356 25.5484 97.3232 26.2881 97.6774 26.9341H103.96V17.9427C102.991 18.1615 102.105 18.6929 101.459 19.4743ZM109.138 34.6648L108.044 33.7479H103.845C103.918 34.0709 103.96 34.4043 103.96 34.7377V41.7079C103.96 42.9581 102.939 43.9792 101.678 43.9792H97.1356C95.8854 43.9792 94.8644 42.9581 94.8644 41.7079V33.7479H93.5828C92.2284 33.7479 90.9573 34.3522 90.0926 35.3837L88.0401 37.8529V41.7079C88.0401 46.7297 92.1138 50.8034 97.1356 50.8034H101.678C106.7 50.8034 110.774 46.7297 110.774 41.7079V38.1551C110.774 36.8006 110.18 35.5191 109.138 34.6648Z" fill="#FF6B57"/>
<path fill-rule="evenodd" clip-rule="evenodd" d="M103.96 9.87861V13.7335L101.907 16.2028C101.043 17.2342 99.7612 17.8385 98.4171 17.8385H97.1356V9.87861C97.1356 8.62836 96.1146 7.60732 94.8644 7.60732H90.3114C89.0611 7.60732 88.0401 8.62836 88.0401 9.87861V16.8488C88.0401 17.1821 88.0817 17.5156 88.1547 17.8385C88.3735 18.8075 88.9048 19.6931 89.6758 20.339L93.2286 23.298C93.687 23.6835 94.0517 24.1419 94.3226 24.6524C94.6768 25.2984 94.8644 26.0277 94.8644 26.7882V27.4655C94.3434 27.7363 93.885 28.1114 93.4995 28.5698L90.5406 32.1122C89.8946 32.8936 89.009 33.425 88.0401 33.6438V23.3813C88.0401 22.0269 87.4462 20.7454 86.4043 19.8806L83.9559 17.8385L82.862 16.9321C81.8201 16.0673 81.2262 14.7858 81.2262 13.4314V9.87861C81.2262 4.85677 85.2895 0.793457 90.3114 0.793457H94.8644C99.8862 0.793457 103.96 4.85677 103.96 9.87861Z" fill="#FF6B57"/>
<path fill-rule="evenodd" clip-rule="evenodd" d="M121.005 20.1098V24.6524C121.005 29.6742 116.931 33.748 111.909 33.748H93.5828C92.2284 33.748 90.9573 34.3522 90.0926 35.3837L88.0401 37.8529L87.1336 38.9365C86.2689 39.968 84.9874 40.5722 83.6434 40.5722H80.0906C75.0687 40.5722 70.995 36.4985 70.995 31.4767V26.9341C70.995 21.9123 75.0687 17.8385 80.0906 17.8385H83.9559L86.4043 19.8806C87.4462 20.7454 88.0401 22.0269 88.0401 23.3813V24.6524H80.0906C78.8299 24.6524 77.8089 25.6734 77.8089 26.9341V31.4767C77.8089 32.7373 78.8299 33.748 80.0906 33.748H87.0503C87.3837 33.748 87.7171 33.7167 88.0401 33.6438C89.009 33.425 89.8946 32.8936 90.5406 32.1122L93.4995 28.5698C93.885 28.1114 94.3434 27.7363 94.8644 27.4655C95.5103 27.1216 96.2396 26.9341 96.9898 26.9341H111.909C113.17 26.9341 114.181 25.9131 114.181 24.6524V20.1098C114.181 18.8596 113.17 17.8385 111.909 17.8385H104.95C104.616 17.8385 104.283 17.8698 103.96 17.9427C102.991 18.1615 102.105 18.6929 101.459 19.4743L98.5005 23.0167C98.115 23.4751 97.6566 23.8501 97.1356 24.121C96.4897 24.4649 95.7604 24.6524 95.0102 24.6524H94.3226C94.0517 24.1419 93.687 23.6835 93.2286 23.298L89.6758 20.339C88.9048 19.6931 88.3735 18.8075 88.1547 17.8385H98.4171C99.7612 17.8385 101.043 17.2342 101.907 16.2028L103.96 13.7335L104.866 12.65C105.731 11.6185 107.013 11.0143 108.357 11.0143H111.909C116.931 11.0143 121.005 15.088 121.005 20.1098Z" fill="#0054E6"/>
</g>
<path d="M184.827 82.0996V73.1165C184.827 72.3789 184.727 71.6787 184.527 71.0161C184.327 70.341 183.952 69.7971 183.401 69.3845C182.851 68.9594 182.039 68.7469 180.963 68.7469C180.101 68.7469 179.357 68.8907 178.732 69.1782C178.107 69.4533 177.594 69.8284 177.194 70.3035C176.794 70.7786 176.469 71.3037 176.219 71.8788L175.6 68.7657H176.219C176.481 67.803 176.9 66.9215 177.475 66.1214C178.063 65.3212 178.869 64.6773 179.894 64.1897C180.92 63.7021 182.207 63.4583 183.758 63.4583C185.458 63.4583 186.858 63.7772 187.959 64.4148C189.059 65.0399 189.884 65.9588 190.434 67.1716C190.984 68.3718 191.259 69.8471 191.259 71.5975V82.0996H184.827ZM155.158 82.0996V64.0772H161.572L161.347 69.4408L161.572 70.5285V82.0996H155.158ZM169.992 82.0996V73.1165C169.992 72.3039 169.88 71.5725 169.655 70.9223C169.442 70.2597 169.061 69.7346 168.511 69.347C167.961 68.9469 167.173 68.7469 166.148 68.7469C165.285 68.7469 164.541 68.8907 163.916 69.1782C163.291 69.4658 162.772 69.8471 162.36 70.3222C161.96 70.7973 161.641 71.3287 161.403 71.9163L160.653 68.7281H161.591C161.791 67.7655 162.185 66.884 162.772 66.0839C163.36 65.2837 164.166 64.6461 165.192 64.171C166.217 63.6959 167.479 63.4583 168.98 63.4583C171.168 63.4583 172.849 63.996 174.025 65.0712C175.2 66.1339 175.912 67.6342 176.162 69.5721C176.212 69.8471 176.269 70.1909 176.331 70.6035C176.394 71.0161 176.425 71.3662 176.425 71.6537V82.0996H169.992Z" fill="#2D2D2D"/>
<path d="M144.208 82.0996L144.452 77.0548L144.377 76.2109V72.1413L144.339 71.2411C144.339 70.2034 143.914 69.422 143.064 68.8969C142.214 68.3593 140.851 68.0905 138.976 68.0905C137.275 68.0905 135.688 68.278 134.212 68.6531C132.737 69.0157 131.331 69.4408 129.993 69.9284L130.63 65.2587C131.406 64.9211 132.274 64.6148 133.237 64.3398C134.2 64.0647 135.244 63.8397 136.369 63.6646C137.507 63.4896 138.732 63.4021 140.045 63.4021C142.158 63.4021 143.896 63.6334 145.258 64.096C146.634 64.5586 147.709 65.1899 148.484 65.9901C149.259 66.7902 149.803 67.7092 150.116 68.7469C150.441 69.7846 150.603 70.8786 150.603 72.0288V82.0996H144.208ZM136.182 82.6809C133.819 82.6809 132.006 82.2058 130.743 81.2556C129.493 80.3054 128.868 78.9864 128.868 77.2986V77.1111C128.868 75.0606 129.63 73.6104 131.156 72.7602C132.693 71.8975 134.925 71.3537 137.851 71.1286L144.789 70.6223L144.921 74.0167L138.301 74.5981C137.138 74.6981 136.319 74.8856 135.844 75.1607C135.369 75.4232 135.131 75.8358 135.131 76.3984V76.4734C135.131 76.986 135.369 77.3924 135.844 77.6924C136.319 77.98 137.094 78.1238 138.169 78.1238C139.32 78.1238 140.314 77.98 141.151 77.6924C142.001 77.4049 142.702 77.0298 143.252 76.5672C143.802 76.0921 144.208 75.5795 144.471 75.0294L145.558 77.6174H144.208C143.971 78.5551 143.552 79.4053 142.952 80.1679C142.351 80.9306 141.501 81.5432 140.401 82.0058C139.313 82.4559 137.907 82.6809 136.182 82.6809Z" fill="#2D2D2D"/>
<path d="M120.761 56.8008C121.999 56.8008 123.186 56.8883 124.324 57.0633C125.474 57.2383 126.5 57.4634 127.4 57.7384L128.037 62.4081C127.262 62.1956 126.456 62.0268 125.618 61.9018C124.781 61.7767 123.874 61.7142 122.899 61.7142C121.736 61.7142 120.861 61.8143 120.273 62.0143C119.686 62.2018 119.292 62.4706 119.092 62.8207C118.904 63.1583 118.811 63.5521 118.811 64.0022V64.0585C118.811 64.3585 118.854 64.6273 118.942 64.8649C119.042 65.1024 119.167 65.315 119.317 65.5025L115.21 65.7463V65.1462C114.472 64.9086 113.841 64.5148 113.316 63.9647C112.791 63.4021 112.528 62.6207 112.528 61.6205V61.5454C112.528 60.0326 113.178 58.8637 114.478 58.0385C115.779 57.2133 117.873 56.8008 120.761 56.8008ZM113.297 82.0996V67.1341H119.673V82.0996H113.297ZM110.034 70.1909V65.2774L116.073 65.3525L118.36 65.2774H127.962L127.325 70.1909H110.034Z" fill="#2D2D2D"/>
<path d="M98.7095 82.7934C96.6966 82.7934 94.8775 82.6309 93.2521 82.3058C91.6393 81.9933 90.2515 81.6182 89.0888 81.1806L88.4137 76.1546C89.7389 76.6672 91.2455 77.1236 92.9333 77.5236C94.6337 77.9237 96.434 78.1238 98.3344 78.1238C99.8597 78.1238 100.96 78.0112 101.635 77.7862C102.323 77.5611 102.667 77.1486 102.667 76.5484C102.667 76.1234 102.504 75.8108 102.179 75.6108C101.866 75.3982 101.329 75.2482 100.566 75.1607C99.8159 75.0606 98.772 74.9606 97.4342 74.8606C95.1088 74.6856 93.2834 74.3793 91.9581 73.9417C90.6329 73.5041 89.6952 72.8977 89.1451 72.1226C88.595 71.3349 88.3199 70.3409 88.3199 69.1407V69.0657C88.3199 67.0778 89.1201 65.6213 90.7204 64.6961C92.3207 63.7709 94.7149 63.3083 97.9031 63.3083C99.8534 63.3083 101.61 63.4583 103.173 63.7584C104.748 64.0584 106.098 64.421 107.224 64.8461L107.861 69.4783C106.561 68.9907 105.104 68.5968 103.492 68.2968C101.879 67.9967 100.216 67.8467 98.5032 67.8467C97.403 67.8467 96.559 67.903 95.9714 68.0155C95.3963 68.1155 95.0025 68.2655 94.7899 68.4656C94.5774 68.6656 94.4711 68.9157 94.4711 69.2157C94.4711 69.5533 94.5774 69.8221 94.7899 70.0221C95.0025 70.2222 95.4588 70.3847 96.159 70.5097C96.8591 70.6223 97.9468 70.741 99.4221 70.8661C101.685 71.0411 103.517 71.3099 104.917 71.6725C106.33 72.035 107.361 72.5914 108.011 73.3415C108.674 74.0792 109.005 75.1232 109.005 76.4734C109.005 78.7114 108.155 80.3242 106.455 81.3119C104.767 82.2996 102.185 82.7934 98.7095 82.7934Z" fill="#2D2D2D"/>
<path d="M79.0878 82.0996L71.1925 74.3355H69.7484V70.8285H71.2112L78.8627 64.0772H87.0019L76.7623 72.929V71.8413L87.3769 82.0996H79.0878ZM63.9535 82.0996V57.4196H70.3673V82.0996H63.9535Z" fill="#2D2D2D"/>
<path d="M52.8205 82.0996V73.1165C52.8205 72.3414 52.7017 71.6225 52.4642 70.9598C52.2266 70.2972 51.7953 69.7659 51.1702 69.3658C50.5576 68.9532 49.6824 68.7469 48.5447 68.7469C47.5945 68.7469 46.7756 68.8907 46.0879 69.1782C45.4128 69.4658 44.8502 69.8471 44.4001 70.3222C43.95 70.7973 43.5999 71.3287 43.3499 71.9163L42.6372 68.7281H43.5187C43.7562 67.7655 44.1875 66.884 44.8127 66.0839C45.4378 65.2837 46.288 64.6461 47.3632 64.171C48.4384 63.6959 49.7637 63.4583 51.339 63.4583C53.1268 63.4583 54.6021 63.7772 55.7649 64.4148C56.9401 65.0399 57.8153 65.9588 58.3904 67.1716C58.9655 68.3843 59.2531 69.8596 59.2531 71.5975V82.0996H52.8205ZM37.1049 82.0996V64.0772H43.5187L43.2749 69.8159L43.5187 70.4347V82.0996H37.1049Z" fill="#2D2D2D"/>
<path d="M25.7867 82.0996V64.0772H32.2005V82.0996H25.7867Z" fill="#2D2D2D"/>
<path d="M7.32334 82.0996H0.740776V58.1323H7.32334V82.0996ZM4.0977 76.8485H22.045V82.0996H4.0977V76.8485Z" fill="#2D2D2D"/>
<g clip-path="url(#clip1_102_2105)">
<path d="M33.6295 57.9538C33.4852 58.545 33.1574 59.0259 32.6974 59.4261C32.2906 59.7797 31.828 60.0546 31.3461 60.3008C30.4163 60.7761 29.453 61.1871 28.5052 61.6278C28.2095 61.7652 27.9671 61.7013 27.7787 61.4342C27.1739 60.575 26.5414 59.733 25.9724 58.8511C25.6242 58.3112 25.3146 57.7529 25.1592 57.1299C25.0108 56.5339 25.0453 55.9539 25.2851 55.3897C25.4531 54.9945 25.6943 54.6528 26.0353 54.3818C26.5487 53.9745 27.1384 53.7995 27.81 53.875C28.3697 53.938 28.8458 54.1645 29.2336 54.5659C29.4532 54.7933 29.6209 55.0539 29.7412 55.341C29.7691 55.4075 29.7852 55.419 29.8485 55.3718C30.2286 55.0888 30.6534 54.9007 31.1407 54.8702C31.8621 54.8246 32.4857 55.063 32.9946 55.5631C33.5596 56.1185 33.756 56.8013 33.6968 57.5569C33.6862 57.6905 33.6633 57.8236 33.6298 57.9539L33.6295 57.9538Z" fill="#FF6B57"/>
</g>
<defs>
<clipPath id="clip0_102_2105">
<rect width="50.01" height="50.01" fill="white" transform="translate(70.995 0.793457)"/>
</clipPath>
<clipPath id="clip1_102_2105">
<rect width="8.75175" height="7.5015" fill="white" transform="translate(25.8156 53.304) rotate(15)"/>
</clipPath>
</defs>
</svg>
