<svg width="198" height="40" viewBox="0 0 198 40" fill="none" xmlns="http://www.w3.org/2000/svg">
<g clip-path="url(#clip0_389_5080)">
<path fill-rule="evenodd" clip-rule="evenodd" d="M24.3667 14.9417L22 17.775C21.6917 18.1417 21.325 18.4417 20.9083 18.6583V19.2C20.9083 19.8 21.0583 20.3917 21.3417 20.9083H26.3667V13.7167C25.5917 13.8917 24.8833 14.3167 24.3667 14.9417ZM30.5083 27.0917L29.6333 26.3583H26.275C26.3333 26.6167 26.3667 26.8833 26.3667 27.15V32.725C26.3667 33.725 25.55 34.5417 24.5417 34.5417H20.9083C19.9083 34.5417 19.0917 33.725 19.0917 32.725V26.3583H18.0667C16.9833 26.3583 15.9667 26.8417 15.275 27.6667L13.6333 29.6417V32.725C13.6333 36.7417 16.8917 40 20.9083 40H24.5417C28.5583 40 31.8167 36.7417 31.8167 32.725V29.8833C31.8167 28.8 31.3417 27.775 30.5083 27.0917Z" fill="white"/>
<path fill-rule="evenodd" clip-rule="evenodd" d="M26.3667 7.26667V10.35L24.725 12.325C24.0333 13.15 23.0083 13.6333 21.9333 13.6333H20.9083V7.26667C20.9083 6.26667 20.0917 5.45 19.0917 5.45H15.45C14.45 5.45 13.6333 6.26667 13.6333 7.26667V12.8417C13.6333 13.1083 13.6667 13.375 13.725 13.6333C13.9 14.4083 14.325 15.1167 14.9417 15.6333L17.7833 18C18.15 18.3083 18.4417 18.675 18.6583 19.0833C18.9417 19.6 19.0917 20.1833 19.0917 20.7917V21.3333C18.675 21.55 18.3083 21.85 18 22.2167L15.6333 25.05C15.1167 25.675 14.4083 26.1 13.6333 26.275V18.0667C13.6333 16.9833 13.1583 15.9583 12.325 15.2667L10.3667 13.6333L9.49167 12.9083C8.65833 12.2167 8.18333 11.1917 8.18333 10.1083V7.26667C8.18333 3.25 11.4333 0 15.45 0H19.0917C23.1083 0 26.3667 3.25 26.3667 7.26667Z" fill="white"/>
<path fill-rule="evenodd" clip-rule="evenodd" d="M40 15.45V19.0833C40 23.1 36.7417 26.3583 32.725 26.3583H18.0667C16.9833 26.3583 15.9667 26.8417 15.275 27.6667L13.6333 29.6417L12.9083 30.5083C12.2167 31.3333 11.1917 31.8167 10.1167 31.8167H7.275C3.25833 31.8167 0 28.5583 0 24.5417V20.9083C0 16.8917 3.25833 13.6333 7.275 13.6333H10.3667L12.325 15.2667C13.1583 15.9583 13.6333 16.9833 13.6333 18.0667V19.0833H7.275C6.26667 19.0833 5.45 19.9 5.45 20.9083V24.5417C5.45 25.55 6.26667 26.3583 7.275 26.3583H12.8417C13.1083 26.3583 13.375 26.3333 13.6333 26.275C14.4083 26.1 15.1167 25.675 15.6333 25.05L18 22.2167C18.3083 21.85 18.675 21.55 19.0917 21.3333C19.6083 21.0583 20.1917 20.9083 20.7917 20.9083H32.725C33.7333 20.9083 34.5417 20.0917 34.5417 19.0833V15.45C34.5417 14.45 33.7333 13.6333 32.725 13.6333H27.1583C26.8917 13.6333 26.625 13.6583 26.3667 13.7167C25.5917 13.8917 24.8833 14.3167 24.3667 14.9417L22 17.775C21.6917 18.1417 21.325 18.4417 20.9083 18.6583C20.3917 18.9333 19.8083 19.0833 19.2083 19.0833H18.6583C18.4417 18.675 18.15 18.3083 17.7833 18L14.9417 15.6333C14.325 15.1167 13.9 14.4083 13.725 13.6333H21.9333C23.0083 13.6333 24.0333 13.15 24.725 12.325L26.3667 10.35L27.0917 9.48332C27.7833 8.65832 28.8083 8.17499 29.8833 8.17499H32.725C36.7417 8.17499 40 11.4333 40 15.45Z" fill="white"/>
</g>
<path d="M192.239 31.2385V24.0535C192.239 23.4635 192.159 22.9035 191.999 22.3735C191.839 21.8335 191.539 21.3985 191.099 21.0685C190.659 20.7285 190.009 20.5585 189.149 20.5585C188.459 20.5585 187.864 20.6735 187.364 20.9035C186.864 21.1235 186.454 21.4235 186.134 21.8035C185.814 22.1835 185.554 22.6035 185.354 23.0635L184.859 20.5735H185.354C185.564 19.8035 185.899 19.0985 186.359 18.4585C186.829 17.8185 187.474 17.3035 188.294 16.9135C189.114 16.5235 190.144 16.3285 191.384 16.3285C192.744 16.3285 193.864 16.5835 194.744 17.0935C195.624 17.5935 196.284 18.3285 196.724 19.2985C197.164 20.2585 197.384 21.4385 197.384 22.8385V31.2385H192.239ZM168.509 31.2385V16.8235H173.639L173.459 21.1135L173.639 21.9835V31.2385H168.509ZM180.374 31.2385V24.0535C180.374 23.4035 180.284 22.8185 180.104 22.2985C179.934 21.7685 179.629 21.3485 179.189 21.0385C178.749 20.7185 178.119 20.5585 177.299 20.5585C176.609 20.5585 176.014 20.6735 175.514 20.9035C175.014 21.1335 174.599 21.4385 174.269 21.8185C173.949 22.1985 173.694 22.6235 173.504 23.0935L172.904 20.5435H173.654C173.814 19.7735 174.129 19.0685 174.599 18.4285C175.069 17.7885 175.714 17.2785 176.534 16.8985C177.354 16.5185 178.364 16.3285 179.564 16.3285C181.314 16.3285 182.659 16.7585 183.599 17.6185C184.539 18.4685 185.109 19.6685 185.309 21.2185C185.349 21.4385 185.394 21.7135 185.444 22.0435C185.494 22.3735 185.519 22.6535 185.519 22.8835V31.2385H180.374Z" fill="white"/>
<path d="M159.751 31.2384L159.946 27.2034L159.886 26.5284V23.2734L159.856 22.5534C159.856 21.7234 159.516 21.0984 158.836 20.6784C158.156 20.2484 157.066 20.0334 155.566 20.0334C154.206 20.0334 152.936 20.1834 151.756 20.4834C150.576 20.7734 149.451 21.1134 148.381 21.5034L148.891 17.7684C149.511 17.4984 150.206 17.2534 150.976 17.0334C151.746 16.8134 152.581 16.6334 153.481 16.4934C154.391 16.3534 155.371 16.2834 156.421 16.2834C158.111 16.2834 159.501 16.4684 160.591 16.8384C161.691 17.2084 162.551 17.7134 163.171 18.3534C163.791 18.9934 164.226 19.7284 164.476 20.5584C164.736 21.3884 164.866 22.2634 164.866 23.1834V31.2384H159.751ZM153.331 31.7034C151.441 31.7034 149.991 31.3234 148.981 30.5634C147.981 29.8034 147.481 28.7484 147.481 27.3984V27.2484C147.481 25.6084 148.091 24.4484 149.311 23.7684C150.541 23.0784 152.326 22.6434 154.666 22.4634L160.216 22.0584L160.321 24.7734L155.026 25.2384C154.096 25.3184 153.441 25.4684 153.061 25.6884C152.681 25.8984 152.491 26.2284 152.491 26.6784V26.7384C152.491 27.1484 152.681 27.4734 153.061 27.7134C153.441 27.9434 154.061 28.0584 154.921 28.0584C155.841 28.0584 156.636 27.9434 157.306 27.7134C157.986 27.4834 158.546 27.1834 158.986 26.8134C159.426 26.4334 159.751 26.0234 159.961 25.5834L160.831 27.6534H159.751C159.561 28.4034 159.226 29.0834 158.746 29.6934C158.266 30.3034 157.586 30.7934 156.706 31.1634C155.836 31.5234 154.711 31.7034 153.331 31.7034Z" fill="white"/>
<path d="M140.997 11.0034C141.987 11.0034 142.937 11.0734 143.847 11.2134C144.767 11.3534 145.587 11.5334 146.307 11.7534L146.817 15.4884C146.197 15.3184 145.552 15.1834 144.882 15.0834C144.212 14.9834 143.487 14.9334 142.707 14.9334C141.777 14.9334 141.077 15.0134 140.607 15.1734C140.137 15.3234 139.822 15.5385 139.662 15.8184C139.512 16.0884 139.437 16.4034 139.437 16.7634V16.8084C139.437 17.0484 139.472 17.2634 139.542 17.4534C139.622 17.6434 139.722 17.8134 139.842 17.9634L136.557 18.1584V17.6784C135.967 17.4884 135.462 17.1734 135.042 16.7334C134.622 16.2834 134.412 15.6584 134.412 14.8584V14.7984C134.412 13.5884 134.932 12.6534 135.972 11.9934C137.012 11.3334 138.687 11.0034 140.997 11.0034ZM135.027 31.2384V19.2684H140.127V31.2384H135.027ZM132.417 21.7134V17.7835L137.247 17.8434L139.077 17.7835H146.757L146.247 21.7134H132.417Z" fill="white"/>
<path d="M123.359 31.7934C121.749 31.7934 120.294 31.6634 118.994 31.4034C117.704 31.1534 116.594 30.8534 115.664 30.5034L115.124 26.4834C116.184 26.8934 117.389 27.2584 118.739 27.5784C120.099 27.8984 121.539 28.0584 123.059 28.0584C124.279 28.0584 125.159 27.9684 125.699 27.7884C126.249 27.6084 126.524 27.2784 126.524 26.7984C126.524 26.4584 126.394 26.2084 126.134 26.0484C125.884 25.8784 125.454 25.7584 124.844 25.6884C124.244 25.6084 123.409 25.5284 122.339 25.4484C120.479 25.3084 119.019 25.0634 117.959 24.7134C116.899 24.3634 116.149 23.8784 115.709 23.2584C115.269 22.6284 115.049 21.8334 115.049 20.8734V20.8134C115.049 19.2234 115.689 18.0584 116.969 17.3184C118.249 16.5784 120.164 16.2084 122.714 16.2084C124.274 16.2084 125.679 16.3284 126.929 16.5684C128.189 16.8084 129.269 17.0984 130.169 17.4384L130.679 21.1434C129.639 20.7534 128.474 20.4384 127.184 20.1984C125.894 19.9584 124.564 19.8384 123.194 19.8384C122.314 19.8384 121.639 19.8834 121.169 19.9734C120.709 20.0534 120.394 20.1734 120.224 20.3334C120.054 20.4934 119.969 20.6934 119.969 20.9334C119.969 21.2034 120.054 21.4184 120.224 21.5784C120.394 21.7384 120.759 21.8684 121.319 21.9684C121.879 22.0584 122.749 22.1534 123.929 22.2534C125.739 22.3934 127.204 22.6084 128.324 22.8984C129.454 23.1884 130.279 23.6334 130.799 24.2334C131.329 24.8234 131.594 25.6584 131.594 26.7384C131.594 28.5284 130.914 29.8184 129.554 30.6084C128.204 31.3984 126.139 31.7934 123.359 31.7934Z" fill="white"/>
<path d="M107.665 31.2384L101.35 25.0284H100.195V22.2234H101.365L107.485 16.8234H113.995L105.805 23.9034V23.0334L114.295 31.2384H107.665ZM95.5601 31.2384V11.4984H100.69V31.2384H95.5601Z" fill="white"/>
<path d="M86.6555 31.2385V24.0535C86.6555 23.4335 86.5605 22.8585 86.3705 22.3285C86.1805 21.7985 85.8355 21.3735 85.3355 21.0535C84.8455 20.7235 84.1455 20.5585 83.2355 20.5585C82.4755 20.5585 81.8205 20.6735 81.2705 20.9035C80.7305 21.1335 80.2805 21.4385 79.9205 21.8185C79.5605 22.1985 79.2805 22.6235 79.0805 23.0935L78.5105 20.5435H79.2155C79.4055 19.7735 79.7505 19.0685 80.2505 18.4285C80.7505 17.7885 81.4305 17.2785 82.2905 16.8985C83.1505 16.5185 84.2105 16.3285 85.4705 16.3285C86.9005 16.3285 88.0805 16.5835 89.0105 17.0935C89.9505 17.5935 90.6505 18.3285 91.1105 19.2985C91.5705 20.2685 91.8005 21.4485 91.8005 22.8385V31.2385H86.6555ZM74.0855 31.2385V16.8235H79.2155L79.0205 21.4135L79.2155 21.9085V31.2385H74.0855Z" fill="white"/>
<path d="M65.0327 31.2385V16.8235H70.1627V31.2385H65.0327Z" fill="white"/>
<path d="M50.265 31.2385H45V12.0685H50.265V31.2385ZM47.685 27.0385H62.04V31.2385H47.685V27.0385Z" fill="white"/>
<g clip-path="url(#clip1_389_5080)">
<path d="M71.3057 11.9258C71.1903 12.3986 70.9281 12.7833 70.5602 13.1034C70.2348 13.3862 69.8648 13.6061 69.4793 13.803C68.7357 14.1832 67.9652 14.5119 67.2071 14.8644C66.9706 14.9743 66.7767 14.9232 66.626 14.7095C66.1423 14.0223 65.6364 13.3489 65.1813 12.6435C64.9028 12.2116 64.6551 11.7651 64.5309 11.2668C64.4121 10.7901 64.4397 10.3262 64.6315 9.87489C64.7659 9.55883 64.9588 9.28549 65.2316 9.06875C65.6422 8.74294 66.1139 8.60298 66.651 8.6634C67.0987 8.71376 67.4796 8.89495 67.7897 9.21603C67.9653 9.3979 68.0995 9.60633 68.1957 9.83596C68.218 9.88916 68.2309 9.89833 68.2815 9.8606C68.5855 9.63422 68.9253 9.48375 69.315 9.45936C69.892 9.42293 70.3909 9.61363 70.7979 10.0136C71.2498 10.4578 71.4069 11.004 71.3595 11.6083C71.351 11.7152 71.3327 11.8217 71.306 11.9258L71.3057 11.9258Z" fill="white"/>
</g>
<defs>
<clipPath id="clip0_389_5080">
<rect width="40" height="40" fill="white"/>
</clipPath>
<clipPath id="clip1_389_5080">
<rect width="7" height="6" fill="white" transform="translate(65.0559 8.20657) rotate(15)"/>
</clipPath>
</defs>
</svg>
