<svg width="157" height="92" viewBox="0 0 157 92" fill="none" xmlns="http://www.w3.org/2000/svg">
<g clip-path="url(#clip0_415_2308)">
<path fill-rule="evenodd" clip-rule="evenodd" d="M82.8667 14.9417L80.5 17.775C80.1917 18.1417 79.825 18.4417 79.4083 18.6583V19.2C79.4083 19.8 79.5583 20.3917 79.8417 20.9083H84.8667V13.7167C84.0917 13.8917 83.3833 14.3167 82.8667 14.9417ZM89.0083 27.0917L88.1333 26.3583H84.775C84.8333 26.6167 84.8667 26.8833 84.8667 27.15V32.725C84.8667 33.725 84.05 34.5417 83.0417 34.5417H79.4083C78.4083 34.5417 77.5917 33.725 77.5917 32.725V26.3583H76.5667C75.4833 26.3583 74.4667 26.8417 73.775 27.6667L72.1333 29.6417V32.725C72.1333 36.7417 75.3917 40 79.4083 40H83.0417C87.0583 40 90.3167 36.7417 90.3167 32.725V29.8833C90.3167 28.8 89.8417 27.775 89.0083 27.0917Z" fill="#FF6B57"/>
<path fill-rule="evenodd" clip-rule="evenodd" d="M84.8667 7.26667V10.35L83.225 12.325C82.5333 13.15 81.5083 13.6333 80.4333 13.6333H79.4083V7.26667C79.4083 6.26667 78.5917 5.45 77.5917 5.45H73.95C72.95 5.45 72.1333 6.26667 72.1333 7.26667V12.8417C72.1333 13.1083 72.1667 13.375 72.225 13.6333C72.4 14.4083 72.825 15.1167 73.4417 15.6333L76.2833 18C76.65 18.3083 76.9417 18.675 77.1583 19.0833C77.4417 19.6 77.5917 20.1833 77.5917 20.7917V21.3333C77.175 21.55 76.8083 21.85 76.5 22.2167L74.1333 25.05C73.6167 25.675 72.9083 26.1 72.1333 26.275V18.0667C72.1333 16.9833 71.6583 15.9583 70.825 15.2667L68.8667 13.6333L67.9917 12.9083C67.1583 12.2167 66.6833 11.1917 66.6833 10.1083V7.26667C66.6833 3.25 69.9333 0 73.95 0H77.5917C81.6083 0 84.8667 3.25 84.8667 7.26667Z" fill="#FF6B57"/>
<path fill-rule="evenodd" clip-rule="evenodd" d="M98.5 15.45V19.0833C98.5 23.1 95.2417 26.3583 91.225 26.3583H76.5667C75.4833 26.3583 74.4667 26.8417 73.775 27.6667L72.1333 29.6417L71.4083 30.5083C70.7167 31.3333 69.6917 31.8167 68.6167 31.8167H65.775C61.7583 31.8167 58.5 28.5583 58.5 24.5417V20.9083C58.5 16.8917 61.7583 13.6333 65.775 13.6333H68.8667L70.825 15.2667C71.6583 15.9583 72.1333 16.9833 72.1333 18.0667V19.0833H65.775C64.7667 19.0833 63.95 19.9 63.95 20.9083V24.5417C63.95 25.55 64.7667 26.3583 65.775 26.3583H71.3417C71.6083 26.3583 71.875 26.3333 72.1333 26.275C72.9083 26.1 73.6167 25.675 74.1333 25.05L76.5 22.2167C76.8083 21.85 77.175 21.55 77.5917 21.3333C78.1083 21.0583 78.6917 20.9083 79.2917 20.9083H91.225C92.2333 20.9083 93.0417 20.0917 93.0417 19.0833V15.45C93.0417 14.45 92.2333 13.6333 91.225 13.6333H85.6583C85.3917 13.6333 85.125 13.6583 84.8667 13.7167C84.0917 13.8917 83.3833 14.3167 82.8667 14.9417L80.5 17.775C80.1917 18.1417 79.825 18.4417 79.4083 18.6583C78.8917 18.9333 78.3083 19.0833 77.7083 19.0833H77.1583C76.9417 18.675 76.65 18.3083 76.2833 18L73.4417 15.6333C72.825 15.1167 72.4 14.4083 72.225 13.6333H80.4333C81.5083 13.6333 82.5333 13.15 83.225 12.325L84.8667 10.35L85.5917 9.48334C86.2833 8.65834 87.3083 8.175 88.3833 8.175H91.225C95.2417 8.175 98.5 11.4333 98.5 15.45Z" fill="#0054E6"/>
</g>
<path d="M151.29 71.6655V64.2829C151.29 63.6766 151.208 63.1012 151.043 62.5566C150.879 62.0018 150.571 61.5548 150.119 61.2157C149.667 60.8664 148.999 60.6917 148.115 60.6917C147.406 60.6917 146.795 60.8099 146.281 61.0462C145.767 61.2723 145.346 61.5805 145.017 61.971C144.688 62.3614 144.421 62.793 144.216 63.2656L143.707 60.7071H144.216C144.431 59.9159 144.776 59.1915 145.248 58.5339C145.731 57.8763 146.394 57.3472 147.237 56.9464C148.079 56.5457 149.137 56.3453 150.412 56.3453C151.809 56.3453 152.96 56.6074 153.864 57.1314C154.768 57.6451 155.446 58.4004 155.898 59.397C156.351 60.3835 156.577 61.5959 156.577 63.0344V71.6655H151.29ZM126.907 71.6655V56.854H132.178L131.993 61.262L132.178 62.1559V71.6655H126.907ZM139.099 71.6655V64.2829C139.099 63.615 139.006 63.0139 138.821 62.4796C138.647 61.935 138.333 61.5034 137.881 61.1849C137.429 60.8561 136.782 60.6917 135.939 60.6917C135.23 60.6917 134.619 60.8099 134.105 61.0462C133.591 61.2825 133.165 61.5959 132.826 61.9864C132.497 62.3768 132.235 62.8135 132.04 63.2965L131.423 60.6763H132.194C132.358 59.8851 132.682 59.1607 133.165 58.5031C133.648 57.8455 134.31 57.3215 135.153 56.931C135.996 56.5406 137.033 56.3453 138.266 56.3453C140.065 56.3453 141.447 56.7872 142.412 57.6708C143.378 58.5442 143.964 59.7772 144.169 61.3699C144.211 61.5959 144.257 61.8785 144.308 62.2176C144.36 62.5566 144.385 62.8443 144.385 63.0807V71.6655H139.099Z" fill="#2D2D2D"/>
<path d="M117.908 71.6655L118.108 67.5195L118.047 66.826V63.4814L118.016 62.7416C118.016 61.8888 117.666 61.2466 116.968 60.815C116.269 60.3732 115.149 60.1523 113.608 60.1523C112.21 60.1523 110.905 60.3064 109.693 60.6147C108.481 60.9126 107.325 61.262 106.225 61.6627L106.749 57.825C107.386 57.5475 108.1 57.2958 108.892 57.0697C109.683 56.8437 110.541 56.6587 111.465 56.5149C112.4 56.371 113.407 56.2991 114.486 56.2991C116.223 56.2991 117.651 56.4892 118.771 56.8694C119.901 57.2496 120.785 57.7684 121.422 58.4261C122.059 59.0837 122.506 59.8389 122.763 60.6917C123.03 61.5446 123.164 62.4436 123.164 63.3889V71.6655H117.908ZM111.311 72.1433C109.369 72.1433 107.879 71.7529 106.842 70.972C105.814 70.1911 105.3 69.107 105.3 67.7199V67.5658C105.3 65.8807 105.927 64.6887 107.181 63.99C108.445 63.281 110.279 62.8341 112.683 62.6491L118.386 62.233L118.494 65.0227L113.053 65.5005C112.097 65.5827 111.424 65.7368 111.034 65.9629C110.643 66.1786 110.448 66.5177 110.448 66.9801V67.0417C110.448 67.463 110.643 67.797 111.034 68.0436C111.424 68.2799 112.061 68.3981 112.945 68.3981C113.89 68.3981 114.707 68.2799 115.396 68.0436C116.094 67.8072 116.67 67.499 117.122 67.1188C117.574 66.7283 117.908 66.3071 118.124 65.855L119.018 67.9819H117.908C117.713 68.7525 117.369 69.4513 116.875 70.078C116.382 70.7048 115.683 71.2083 114.779 71.5885C113.885 71.9584 112.729 72.1433 111.311 72.1433Z" fill="#2D2D2D"/>
<path d="M98.638 50.8738C99.6552 50.8738 100.631 50.9458 101.566 51.0896C102.512 51.2335 103.354 51.4184 104.094 51.6445L104.618 55.4822C103.981 55.3075 103.318 55.1688 102.63 55.0661C101.941 54.9633 101.196 54.9119 100.395 54.9119C99.4394 54.9119 98.7202 54.9941 98.2373 55.1585C97.7543 55.3127 97.4307 55.5336 97.2663 55.8213C97.1121 56.0987 97.0351 56.4224 97.0351 56.7923V56.8385C97.0351 57.0851 97.071 57.306 97.143 57.5013C97.2252 57.6965 97.3279 57.8712 97.4512 58.0253L94.0758 58.2257V57.7325C93.4696 57.5372 92.9507 57.2136 92.5191 56.7615C92.0876 56.2991 91.8718 55.6569 91.8718 54.8349V54.7732C91.8718 53.5299 92.4061 52.5692 93.4747 51.8911C94.5433 51.2129 96.2644 50.8738 98.638 50.8738ZM92.5037 71.6655V59.3662H97.744V71.6655H92.5037ZM89.8219 61.8785V57.8404L94.7848 57.902L96.6652 57.8404H104.556L104.032 61.8785H89.8219Z" fill="#2D2D2D"/>
<path d="M80.5151 72.2358C78.8608 72.2358 77.3658 72.1022 76.03 71.8351C74.7045 71.5782 73.564 71.2699 72.6084 70.9103L72.0536 66.7797C73.1427 67.201 74.3809 67.576 75.768 67.9048C77.1654 68.2336 78.6451 68.398 80.2069 68.398C81.4604 68.398 82.3646 68.3056 82.9195 68.1206C83.4846 67.9357 83.7672 67.5966 83.7672 67.1034C83.7672 66.754 83.6336 66.4971 83.3665 66.3327C83.1096 66.1581 82.6678 66.0348 82.041 65.9628C81.4245 65.8806 80.5665 65.7984 79.4671 65.7162C77.5559 65.5724 76.0557 65.3206 74.9666 64.961C73.8774 64.6014 73.1068 64.103 72.6547 63.466C72.2026 62.8187 71.9765 62.0018 71.9765 61.0154V60.9537C71.9765 59.32 72.6341 58.1229 73.9493 57.3626C75.2645 56.6022 77.2322 56.222 79.8524 56.222C81.4553 56.222 82.899 56.3453 84.1833 56.5919C85.478 56.8385 86.5877 57.1365 87.5125 57.4859L88.0365 61.2928C86.9679 60.8921 85.7708 60.5684 84.4454 60.3218C83.1199 60.0752 81.7533 59.9519 80.3456 59.9519C79.4414 59.9519 78.7478 59.9981 78.2649 60.0906C77.7922 60.1728 77.4686 60.2961 77.2939 60.4605C77.1192 60.6249 77.0319 60.8304 77.0319 61.077C77.0319 61.3545 77.1192 61.5754 77.2939 61.7398C77.4686 61.9042 77.8436 62.0377 78.419 62.1405C78.9944 62.233 79.8883 62.3306 81.1008 62.4333C82.9606 62.5772 84.4659 62.7981 85.6167 63.0961C86.7778 63.3941 87.6255 63.8513 88.1598 64.4678C88.7044 65.074 88.9767 65.932 88.9767 67.0417C88.9767 68.881 88.278 70.2065 86.8806 71.0182C85.4934 71.8299 83.3716 72.2358 80.5151 72.2358Z" fill="#2D2D2D"/>
<path d="M64.3891 71.6655L57.9004 65.2847H56.7136V62.4025H57.9158L64.2042 56.8539H70.8933L62.4779 64.1287V63.2348L71.2015 71.6655H64.3891ZM51.9511 71.6655V51.3824H57.2222V71.6655H51.9511Z" fill="#2D2D2D"/>
<path d="M42.8015 71.6655V64.2829C42.8015 63.6458 42.7039 63.055 42.5087 62.5104C42.3134 61.9658 41.9589 61.5291 41.4452 61.2003C40.9417 60.8613 40.2225 60.6917 39.2874 60.6917C38.5065 60.6917 37.8335 60.8099 37.2684 61.0462C36.7135 61.2825 36.2511 61.5959 35.8812 61.9864C35.5113 62.3768 35.2236 62.8135 35.0181 63.2965L34.4324 60.6763H35.1568C35.352 59.8851 35.7065 59.1607 36.2203 58.5031C36.734 57.8455 37.4328 57.3215 38.3164 56.931C39.2001 56.5406 40.2892 56.3453 41.5839 56.3453C43.0532 56.3453 44.2657 56.6074 45.2213 57.1314C46.1872 57.6451 46.9064 58.4004 47.3791 59.397C47.8517 60.3937 48.0881 61.6062 48.0881 63.0344V71.6655H42.8015ZM29.8857 71.6655V56.854H35.1568L34.9565 61.5702L35.1568 62.0789V71.6655H29.8857Z" fill="#2D2D2D"/>
<path d="M20.5839 71.6655V56.854H25.855V71.6655H20.5839Z" fill="#2D2D2D"/>
<path d="M5.40985 71.6655H0V51.9681H5.40985V71.6655ZM2.75887 67.35H17.5088V71.6655H2.75887V67.35Z" fill="#2D2D2D"/>
<g clip-path="url(#clip1_415_2308)">
<path d="M27.0294 51.8215C26.9108 52.3074 26.6414 52.7026 26.2634 53.0315C25.929 53.3222 25.5488 53.5481 25.1528 53.7504C24.3886 54.141 23.597 54.4788 22.818 54.841C22.575 54.9539 22.3758 54.9014 22.221 54.6818C21.7239 53.9758 21.2041 53.2838 20.7365 52.559C20.4503 52.1152 20.1959 51.6564 20.0682 51.1444C19.9462 50.6546 19.9745 50.1779 20.1716 49.7142C20.3096 49.3894 20.5079 49.1086 20.7881 48.8859C21.2101 48.5511 21.6948 48.4073 22.2467 48.4694C22.7067 48.5211 23.098 48.7073 23.4167 49.0372C23.5971 49.2241 23.735 49.4383 23.8338 49.6742C23.8567 49.7289 23.87 49.7383 23.922 49.6995C24.2344 49.4669 24.5835 49.3123 24.984 49.2872C25.5768 49.2498 26.0894 49.4458 26.5076 49.8567C26.9719 50.3132 27.1334 50.8744 27.0847 51.4953C27.076 51.6052 27.0572 51.7145 27.0297 51.8216L27.0294 51.8215Z" fill="#FF6B57"/>
</g>
<path d="M8.42045 83.8722C8.42045 84.7926 8.25426 85.5881 7.92188 86.2585C7.58949 86.929 7.13352 87.446 6.55398 87.8097C5.97443 88.1733 5.3125 88.3551 4.56818 88.3551C3.82386 88.3551 3.16193 88.1733 2.58239 87.8097C2.00284 87.446 1.54688 86.929 1.21449 86.2585C0.882102 85.5881 0.715909 84.7926 0.715909 83.8722C0.715909 82.9517 0.882102 82.1562 1.21449 81.4858C1.54688 80.8153 2.00284 80.2983 2.58239 79.9347C3.16193 79.571 3.82386 79.3892 4.56818 79.3892C5.3125 79.3892 5.97443 79.571 6.55398 79.9347C7.13352 80.2983 7.58949 80.8153 7.92188 81.4858C8.25426 82.1562 8.42045 82.9517 8.42045 83.8722ZM7.39773 83.8722C7.39773 83.1165 7.27131 82.4787 7.01847 81.9588C6.76847 81.4389 6.42898 81.0455 6 80.7784C5.57386 80.5114 5.09659 80.3778 4.56818 80.3778C4.03977 80.3778 3.56108 80.5114 3.1321 80.7784C2.70597 81.0455 2.36648 81.4389 2.11364 81.9588C1.86364 82.4787 1.73864 83.1165 1.73864 83.8722C1.73864 84.6278 1.86364 85.2656 2.11364 85.7855C2.36648 86.3054 2.70597 86.6989 3.1321 86.9659C3.56108 87.233 4.03977 87.3665 4.56818 87.3665C5.09659 87.3665 5.57386 87.233 6 86.9659C6.42898 86.6989 6.76847 86.3054 7.01847 85.7855C7.27131 85.2656 7.39773 84.6278 7.39773 83.8722ZM11.0668 84.2983V88.2358H10.0611V81.6903H11.0327V82.7131H11.1179C11.2713 82.3807 11.5043 82.1136 11.8168 81.9119C12.1293 81.7074 12.5327 81.6051 13.027 81.6051C13.4702 81.6051 13.858 81.696 14.1903 81.8778C14.5227 82.0568 14.7813 82.3295 14.9659 82.696C15.1506 83.0597 15.2429 83.5199 15.2429 84.0767V88.2358H14.2372V84.1449C14.2372 83.6307 14.1037 83.2301 13.8366 82.9432C13.5696 82.6534 13.2031 82.5085 12.7372 82.5085C12.4162 82.5085 12.1293 82.5781 11.8764 82.7173C11.6264 82.8565 11.429 83.0597 11.2841 83.3267C11.1392 83.5937 11.0668 83.9176 11.0668 84.2983ZM19.8249 88.3722C19.1942 88.3722 18.6502 88.233 18.1928 87.9545C17.7383 87.6733 17.3874 87.2812 17.1403 86.7784C16.896 86.2727 16.7738 85.6847 16.7738 85.0142C16.7738 84.3437 16.896 83.7528 17.1403 83.2415C17.3874 82.7273 17.7312 82.3267 18.1715 82.0398C18.6147 81.75 19.1317 81.6051 19.7227 81.6051C20.0636 81.6051 20.4002 81.6619 20.7326 81.7756C21.065 81.8892 21.3675 82.0739 21.6403 82.3295C21.913 82.5824 22.1303 82.9176 22.2923 83.3352C22.4542 83.7528 22.5352 84.267 22.5352 84.8778V85.304H17.4897V84.4347H21.5124C21.5124 84.0653 21.4386 83.7358 21.2908 83.446C21.146 83.1562 20.9386 82.9276 20.6687 82.7599C20.4016 82.5923 20.0863 82.5085 19.7227 82.5085C19.3221 82.5085 18.9755 82.608 18.6829 82.8068C18.3931 83.0028 18.1701 83.2585 18.0138 83.5739C17.8576 83.8892 17.7795 84.2273 17.7795 84.5881V85.1676C17.7795 85.6619 17.8647 86.081 18.0352 86.4247C18.2085 86.7656 18.4485 87.0256 18.7553 87.2045C19.0621 87.3807 19.4187 87.4687 19.8249 87.4687C20.0891 87.4687 20.3278 87.4318 20.5408 87.358C20.7567 87.2812 20.9428 87.1676 21.0991 87.017C21.2553 86.8636 21.3761 86.6733 21.4613 86.446L22.4329 86.7187C22.3306 87.0483 22.1587 87.3381 21.9173 87.5881C21.6758 87.8352 21.3775 88.0284 21.0224 88.1676C20.6673 88.304 20.2681 88.3722 19.8249 88.3722ZM32.3491 81.6903C32.2979 81.2585 32.0906 80.9233 31.7269 80.6847C31.3633 80.446 30.9173 80.3267 30.3888 80.3267C30.0025 80.3267 29.6644 80.3892 29.3746 80.5142C29.0877 80.6392 28.8633 80.8111 28.7013 81.0298C28.5423 81.2486 28.4627 81.4972 28.4627 81.7756C28.4627 82.0085 28.5181 82.2088 28.6289 82.3764C28.7425 82.5412 28.8874 82.679 29.0636 82.7898C29.2397 82.8977 29.4244 82.9872 29.6175 83.0582C29.8107 83.1264 29.9883 83.1818 30.1502 83.2244L31.0366 83.4631C31.2638 83.5227 31.5167 83.6051 31.7951 83.7102C32.0763 83.8153 32.3448 83.9588 32.6005 84.1406C32.859 84.3196 33.0721 84.5497 33.2397 84.831C33.4073 85.1122 33.4911 85.4574 33.4911 85.8665C33.4911 86.3381 33.3675 86.7642 33.1204 87.1449C32.8761 87.5256 32.5181 87.8281 32.0465 88.0526C31.5778 88.277 31.0082 88.3892 30.3377 88.3892C29.7127 88.3892 29.1715 88.2884 28.7141 88.0866C28.2596 87.8849 27.9016 87.6037 27.6403 87.2429C27.3817 86.8821 27.2354 86.4631 27.2013 85.9858H28.2923C28.3207 86.3153 28.4315 86.5881 28.6246 86.804C28.8207 87.017 29.0678 87.1761 29.3661 87.2812C29.6673 87.3835 29.9911 87.4347 30.3377 87.4347C30.7411 87.4347 31.1033 87.3693 31.4244 87.2386C31.7454 87.1051 31.9996 86.9205 32.1871 86.6847C32.3746 86.446 32.4684 86.1676 32.4684 85.8494C32.4684 85.5597 32.3874 85.3239 32.2255 85.142C32.0636 84.9602 31.8505 84.8125 31.5863 84.6989C31.3221 84.5852 31.0366 84.4858 30.7298 84.4006L29.6559 84.0937C28.9741 83.8977 28.4343 83.6179 28.0366 83.2543C27.6388 82.8906 27.44 82.4148 27.44 81.8267C27.44 81.3381 27.5721 80.9119 27.8363 80.5483C28.1033 80.1818 28.4613 79.8977 28.9102 79.696C29.3619 79.4915 29.8661 79.3892 30.4229 79.3892C30.9854 79.3892 31.4854 79.4901 31.9229 79.6918C32.3604 79.8906 32.707 80.1634 32.9627 80.5099C33.2212 80.8565 33.3576 81.25 33.3718 81.6903H32.3491ZM37.9389 81.6903V82.5426H34.5469V81.6903H37.9389ZM35.5355 80.1222H36.5412V86.3608C36.5412 86.6449 36.5824 86.858 36.6648 87C36.75 87.1392 36.858 87.233 36.9886 87.2812C37.1222 87.3267 37.2628 87.3494 37.4105 87.3494C37.5213 87.3494 37.6122 87.3437 37.6832 87.3324C37.7543 87.3182 37.8111 87.3068 37.8537 87.2983L38.0582 88.2017C37.9901 88.2273 37.8949 88.2528 37.7727 88.2784C37.6506 88.3068 37.4957 88.321 37.3082 88.321C37.0241 88.321 36.7457 88.2599 36.473 88.1378C36.2031 88.0156 35.9787 87.8295 35.7997 87.5795C35.6236 87.3295 35.5355 87.0142 35.5355 86.6335V80.1222ZM42.0405 88.3722C41.4496 88.3722 40.9311 88.2315 40.4851 87.9503C40.0419 87.669 39.6953 87.2756 39.4453 86.7699C39.1982 86.2642 39.0746 85.6733 39.0746 84.9972C39.0746 84.3153 39.1982 83.7202 39.4453 83.2116C39.6953 82.7031 40.0419 82.3082 40.4851 82.027C40.9311 81.7457 41.4496 81.6051 42.0405 81.6051C42.6314 81.6051 43.1484 81.7457 43.5916 82.027C44.0376 82.3082 44.3842 82.7031 44.6314 83.2116C44.8814 83.7202 45.0064 84.3153 45.0064 84.9972C45.0064 85.6733 44.8814 86.2642 44.6314 86.7699C44.3842 87.2756 44.0376 87.669 43.5916 87.9503C43.1484 88.2315 42.6314 88.3722 42.0405 88.3722ZM42.0405 87.4687C42.4893 87.4687 42.8587 87.3537 43.1484 87.1236C43.4382 86.8935 43.6527 86.5909 43.7919 86.2159C43.9311 85.8409 44.0007 85.4347 44.0007 84.9972C44.0007 84.5597 43.9311 84.152 43.7919 83.7741C43.6527 83.3963 43.4382 83.0909 43.1484 82.858C42.8587 82.625 42.4893 82.5085 42.0405 82.5085C41.5916 82.5085 41.2223 82.625 40.9325 82.858C40.6428 83.0909 40.4283 83.3963 40.2891 83.7741C40.1499 84.152 40.0803 84.5597 40.0803 84.9972C40.0803 85.4347 40.1499 85.8409 40.2891 86.2159C40.4283 86.5909 40.6428 86.8935 40.9325 87.1236C41.2223 87.3537 41.5916 87.4687 42.0405 87.4687ZM46.5415 90.6903V81.6903H47.5131V82.7301H47.6325C47.7063 82.6165 47.8086 82.4716 47.9393 82.2955C48.0728 82.1165 48.2631 81.9574 48.5103 81.8182C48.7603 81.6761 49.0984 81.6051 49.5245 81.6051C50.0756 81.6051 50.5614 81.7429 50.9819 82.0185C51.4023 82.294 51.7305 82.6847 51.9663 83.1903C52.2021 83.696 52.32 84.2926 52.32 84.9801C52.32 85.6733 52.2021 86.2741 51.9663 86.7827C51.7305 87.2884 51.4038 87.6804 50.9862 87.9588C50.5685 88.2344 50.087 88.3722 49.5415 88.3722C49.1211 88.3722 48.7844 88.3026 48.5316 88.1634C48.2788 88.0213 48.0842 87.8608 47.9478 87.6818C47.8114 87.5 47.7063 87.3494 47.6325 87.2301H47.5472V90.6903H46.5415ZM47.5302 84.9631C47.5302 85.4574 47.6026 85.8935 47.7475 86.2713C47.8924 86.6463 48.104 86.9403 48.3825 87.1534C48.6609 87.3636 49.0018 87.4687 49.4052 87.4687C49.8256 87.4687 50.1765 87.358 50.4577 87.1364C50.7418 86.9119 50.9549 86.6108 51.0969 86.233C51.2418 85.8523 51.3143 85.429 51.3143 84.9631C51.3143 84.5028 51.2433 84.0881 51.1012 83.7187C50.962 83.3466 50.7504 83.0526 50.4663 82.8366C50.185 82.6179 49.8313 82.5085 49.4052 82.5085C48.9961 82.5085 48.6523 82.6122 48.3739 82.8196C48.0955 83.0241 47.8853 83.3111 47.7433 83.6804C47.6012 84.0469 47.5302 84.4744 47.5302 84.9631ZM62.1381 81.6903C62.087 81.2585 61.8796 80.9233 61.516 80.6847C61.1523 80.446 60.7063 80.3267 60.1779 80.3267C59.7915 80.3267 59.4535 80.3892 59.1637 80.5142C58.8768 80.6392 58.6523 80.8111 58.4904 81.0298C58.3313 81.2486 58.2518 81.4972 58.2518 81.7756C58.2518 82.0085 58.3072 82.2088 58.418 82.3764C58.5316 82.5412 58.6765 82.679 58.8526 82.7898C59.0288 82.8977 59.2134 82.9872 59.4066 83.0582C59.5998 83.1264 59.7773 83.1818 59.9393 83.2244L60.8256 83.4631C61.0529 83.5227 61.3058 83.6051 61.5842 83.7102C61.8654 83.8153 62.1339 83.9588 62.3896 84.1406C62.6481 84.3196 62.8612 84.5497 63.0288 84.831C63.1964 85.1122 63.2802 85.4574 63.2802 85.8665C63.2802 86.3381 63.1566 86.7642 62.9094 87.1449C62.6651 87.5256 62.3072 87.8281 61.8356 88.0526C61.3668 88.277 60.7972 88.3892 60.1268 88.3892C59.5018 88.3892 58.9606 88.2884 58.5032 88.0866C58.0487 87.8849 57.6907 87.6037 57.4293 87.2429C57.1708 86.8821 57.0245 86.4631 56.9904 85.9858H58.0813C58.1097 86.3153 58.2205 86.5881 58.4137 86.804C58.6097 87.017 58.8569 87.1761 59.1552 87.2812C59.4563 87.3835 59.7802 87.4347 60.1268 87.4347C60.5302 87.4347 60.8924 87.3693 61.2134 87.2386C61.5344 87.1051 61.7887 86.9205 61.9762 86.6847C62.1637 86.446 62.2575 86.1676 62.2575 85.8494C62.2575 85.5597 62.1765 85.3239 62.0146 85.142C61.8526 84.9602 61.6396 84.8125 61.3754 84.6989C61.1112 84.5852 60.8256 84.4858 60.5188 84.4006L59.445 84.0937C58.7631 83.8977 58.2234 83.6179 57.8256 83.2543C57.4279 82.8906 57.229 82.4148 57.229 81.8267C57.229 81.3381 57.3612 80.9119 57.6254 80.5483C57.8924 80.1818 58.2504 79.8977 58.6992 79.696C59.1509 79.4915 59.6552 79.3892 60.212 79.3892C60.7745 79.3892 61.2745 79.4901 61.712 79.6918C62.1495 79.8906 62.4961 80.1634 62.7518 80.5099C63.0103 80.8565 63.1467 81.25 63.1609 81.6903H62.1381ZM65.8871 84.2983V88.2358H64.8814V79.5085H65.8871V82.7131H65.9723C66.1257 82.375 66.3558 82.1065 66.6626 81.9077C66.9723 81.706 67.3842 81.6051 67.8984 81.6051C68.3445 81.6051 68.7351 81.6946 69.0703 81.8736C69.4055 82.0497 69.6655 82.321 69.8501 82.6875C70.0376 83.0511 70.1314 83.5142 70.1314 84.0767V88.2358H69.1257V84.1449C69.1257 83.625 68.9908 83.223 68.7209 82.9389C68.4538 82.652 68.0831 82.5085 67.6087 82.5085C67.2791 82.5085 66.9837 82.5781 66.7223 82.7173C66.4638 82.8565 66.2592 83.0597 66.1087 83.3267C65.9609 83.5937 65.8871 83.9176 65.8871 84.2983ZM74.6303 88.3722C74.0394 88.3722 73.521 88.2315 73.0749 87.9503C72.6317 87.669 72.2852 87.2756 72.0352 86.7699C71.788 86.2642 71.6644 85.6733 71.6644 84.9972C71.6644 84.3153 71.788 83.7202 72.0352 83.2116C72.2852 82.7031 72.6317 82.3082 73.0749 82.027C73.521 81.7457 74.0394 81.6051 74.6303 81.6051C75.2212 81.6051 75.7383 81.7457 76.1815 82.027C76.6275 82.3082 76.9741 82.7031 77.2212 83.2116C77.4712 83.7202 77.5962 84.3153 77.5962 84.9972C77.5962 85.6733 77.4712 86.2642 77.2212 86.7699C76.9741 87.2756 76.6275 87.669 76.1815 87.9503C75.7383 88.2315 75.2212 88.3722 74.6303 88.3722ZM74.6303 87.4687C75.0792 87.4687 75.4485 87.3537 75.7383 87.1236C76.0281 86.8935 76.2425 86.5909 76.3817 86.2159C76.521 85.8409 76.5906 85.4347 76.5906 84.9972C76.5906 84.5597 76.521 84.152 76.3817 83.7741C76.2425 83.3963 76.0281 83.0909 75.7383 82.858C75.4485 82.625 75.0792 82.5085 74.6303 82.5085C74.1815 82.5085 73.8121 82.625 73.5224 82.858C73.2326 83.0909 73.0181 83.3963 72.8789 83.7741C72.7397 84.152 72.6701 84.5597 72.6701 84.9972C72.6701 85.4347 72.7397 85.8409 72.8789 86.2159C73.0181 86.5909 73.2326 86.8935 73.5224 87.1236C73.8121 87.3537 74.1815 87.4687 74.6303 87.4687ZM79.1314 90.6903V81.6903H80.103V82.7301H80.2223C80.2962 82.6165 80.3984 82.4716 80.5291 82.2955C80.6626 82.1165 80.853 81.9574 81.1001 81.8182C81.3501 81.6761 81.6882 81.6051 82.1143 81.6051C82.6655 81.6051 83.1513 81.7429 83.5717 82.0185C83.9922 82.294 84.3203 82.6847 84.5561 83.1903C84.7919 83.696 84.9098 84.2926 84.9098 84.9801C84.9098 85.6733 84.7919 86.2741 84.5561 86.7827C84.3203 87.2884 83.9936 87.6804 83.576 87.9588C83.1584 88.2344 82.6768 88.3722 82.1314 88.3722C81.7109 88.3722 81.3743 88.3026 81.1214 88.1634C80.8686 88.0213 80.674 87.8608 80.5376 87.6818C80.4013 87.5 80.2962 87.3494 80.2223 87.2301H80.1371V90.6903H79.1314ZM80.12 84.9631C80.12 85.4574 80.1925 85.8935 80.3374 86.2713C80.4822 86.6463 80.6939 86.9403 80.9723 87.1534C81.2507 87.3636 81.5916 87.4687 81.995 87.4687C82.4155 87.4687 82.7663 87.358 83.0476 87.1364C83.3317 86.9119 83.5447 86.6108 83.6868 86.233C83.8317 85.8523 83.9041 85.429 83.9041 84.9631C83.9041 84.5028 83.8331 84.0881 83.6911 83.7187C83.5518 83.3466 83.3402 83.0526 83.0561 82.8366C82.7749 82.6179 82.4212 82.5085 81.995 82.5085C81.5859 82.5085 81.2422 82.6122 80.9638 82.8196C80.6854 83.0241 80.4751 83.3111 80.3331 83.6804C80.1911 84.0469 80.12 84.4744 80.12 84.9631ZM92.7337 81.6903V82.5426H89.2053V81.6903H92.7337ZM90.2621 88.2358V80.7869C90.2621 80.4119 90.3501 80.0994 90.5263 79.8494C90.7024 79.5994 90.9311 79.4119 91.2124 79.2869C91.4936 79.1619 91.7905 79.0994 92.103 79.0994C92.3501 79.0994 92.5518 79.1193 92.7081 79.1591C92.8643 79.1989 92.9808 79.2358 93.0575 79.2699L92.7678 80.1392C92.7166 80.1222 92.6456 80.1009 92.5547 80.0753C92.4666 80.0497 92.3501 80.0369 92.2053 80.0369C91.8729 80.0369 91.6328 80.1207 91.4851 80.2884C91.3402 80.456 91.2678 80.7017 91.2678 81.0256V88.2358H90.2621ZM96.5327 88.3722C95.9418 88.3722 95.4233 88.2315 94.9773 87.9503C94.5341 87.669 94.1875 87.2756 93.9375 86.7699C93.6903 86.2642 93.5668 85.6733 93.5668 84.9972C93.5668 84.3153 93.6903 83.7202 93.9375 83.2116C94.1875 82.7031 94.5341 82.3082 94.9773 82.027C95.4233 81.7457 95.9418 81.6051 96.5327 81.6051C97.1236 81.6051 97.6406 81.7457 98.0838 82.027C98.5298 82.3082 98.8764 82.7031 99.1236 83.2116C99.3736 83.7202 99.4986 84.3153 99.4986 84.9972C99.4986 85.6733 99.3736 86.2642 99.1236 86.7699C98.8764 87.2756 98.5298 87.669 98.0838 87.9503C97.6406 88.2315 97.1236 88.3722 96.5327 88.3722ZM96.5327 87.4687C96.9815 87.4687 97.3509 87.3537 97.6406 87.1236C97.9304 86.8935 98.1449 86.5909 98.2841 86.2159C98.4233 85.8409 98.4929 85.4347 98.4929 84.9972C98.4929 84.5597 98.4233 84.152 98.2841 83.7741C98.1449 83.3963 97.9304 83.0909 97.6406 82.858C97.3509 82.625 96.9815 82.5085 96.5327 82.5085C96.0838 82.5085 95.7145 82.625 95.4247 82.858C95.1349 83.0909 94.9205 83.3963 94.7812 83.7741C94.642 84.152 94.5724 84.5597 94.5724 84.9972C94.5724 85.4347 94.642 85.8409 94.7812 86.2159C94.9205 86.5909 95.1349 86.8935 95.4247 87.1236C95.7145 87.3537 96.0838 87.4687 96.5327 87.4687ZM101.034 88.2358V81.6903H102.005V82.679H102.074C102.193 82.3551 102.409 82.0923 102.721 81.8906C103.034 81.6889 103.386 81.5881 103.778 81.5881C103.852 81.5881 103.944 81.5895 104.055 81.5923C104.166 81.5952 104.25 81.5994 104.306 81.6051V82.6278C104.272 82.6193 104.194 82.6065 104.072 82.5895C103.953 82.5696 103.826 82.5597 103.693 82.5597C103.375 82.5597 103.091 82.6264 102.841 82.7599C102.593 82.8906 102.397 83.0724 102.252 83.3054C102.11 83.5355 102.039 83.7983 102.039 84.0937V88.2358H101.034ZM116.033 82.2358H114.976C114.913 81.9318 114.804 81.6648 114.648 81.4347C114.494 81.2045 114.307 81.0114 114.085 80.8551C113.866 80.696 113.624 80.5767 113.357 80.4972C113.089 80.4176 112.811 80.3778 112.521 80.3778C111.993 80.3778 111.514 80.5114 111.085 80.7784C110.659 81.0455 110.32 81.4389 110.067 81.9588C109.817 82.4787 109.692 83.1165 109.692 83.8722C109.692 84.6278 109.817 85.2656 110.067 85.7855C110.32 86.3054 110.659 86.6989 111.085 86.9659C111.514 87.233 111.993 87.3665 112.521 87.3665C112.811 87.3665 113.089 87.3267 113.357 87.2472C113.624 87.1676 113.866 87.0497 114.085 86.8935C114.307 86.7344 114.494 86.5398 114.648 86.3097C114.804 86.0767 114.913 85.8097 114.976 85.5085H116.033C115.953 85.9545 115.808 86.3537 115.598 86.706C115.388 87.0582 115.126 87.358 114.814 87.6051C114.501 87.8494 114.151 88.0355 113.761 88.1634C113.375 88.2912 112.962 88.3551 112.521 88.3551C111.777 88.3551 111.115 88.1733 110.536 87.8097C109.956 87.446 109.5 86.929 109.168 86.2585C108.835 85.5881 108.669 84.7926 108.669 83.8722C108.669 82.9517 108.835 82.1562 109.168 81.4858C109.5 80.8153 109.956 80.2983 110.536 79.9347C111.115 79.571 111.777 79.3892 112.521 79.3892C112.962 79.3892 113.375 79.4531 113.761 79.581C114.151 79.7088 114.501 79.8963 114.814 80.1435C115.126 80.3878 115.388 80.6861 115.598 81.0384C115.808 81.3878 115.953 81.7869 116.033 82.2358ZM117.604 88.2358V81.6903H118.576V82.679H118.644C118.763 82.3551 118.979 82.0923 119.292 81.8906C119.604 81.6889 119.956 81.5881 120.348 81.5881C120.422 81.5881 120.515 81.5895 120.625 81.5923C120.736 81.5952 120.82 81.5994 120.877 81.6051V82.6278C120.843 82.6193 120.765 82.6065 120.642 82.5895C120.523 82.5696 120.397 82.5597 120.263 82.5597C119.945 82.5597 119.661 82.6264 119.411 82.7599C119.164 82.8906 118.968 83.0724 118.823 83.3054C118.681 83.5355 118.61 83.7983 118.61 84.0937V88.2358H117.604ZM124.614 88.3722C123.983 88.3722 123.439 88.233 122.982 87.9545C122.527 87.6733 122.176 87.2812 121.929 86.7784C121.685 86.2727 121.563 85.6847 121.563 85.0142C121.563 84.3437 121.685 83.7528 121.929 83.2415C122.176 82.7273 122.52 82.3267 122.961 82.0398C123.404 81.75 123.921 81.6051 124.512 81.6051C124.853 81.6051 125.189 81.6619 125.522 81.7756C125.854 81.8892 126.157 82.0739 126.429 82.3295C126.702 82.5824 126.919 82.9176 127.081 83.3352C127.243 83.7528 127.324 84.267 127.324 84.8778V85.304H122.279V84.4347H126.301C126.301 84.0653 126.228 83.7358 126.08 83.446C125.935 83.1562 125.728 82.9276 125.458 82.7599C125.191 82.5923 124.875 82.5085 124.512 82.5085C124.111 82.5085 123.765 82.608 123.472 82.8068C123.182 83.0028 122.959 83.2585 122.803 83.5739C122.647 83.8892 122.569 84.2273 122.569 84.5881V85.1676C122.569 85.6619 122.654 86.081 122.824 86.4247C122.998 86.7656 123.238 87.0256 123.544 87.2045C123.851 87.3807 124.208 87.4687 124.614 87.4687C124.878 87.4687 125.117 87.4318 125.33 87.358C125.546 87.2812 125.732 87.1676 125.888 87.017C126.044 86.8636 126.165 86.6733 126.25 86.446L127.222 86.7187C127.12 87.0483 126.948 87.3381 126.706 87.5881C126.465 87.8352 126.167 88.0284 125.811 88.1676C125.456 88.304 125.057 88.3722 124.614 88.3722ZM130.78 88.3892C130.365 88.3892 129.989 88.3111 129.651 88.1548C129.313 87.9957 129.044 87.767 128.846 87.4687C128.647 87.1676 128.547 86.804 128.547 86.3778C128.547 86.0028 128.621 85.6989 128.769 85.4659C128.917 85.2301 129.114 85.0455 129.361 84.9119C129.608 84.7784 129.881 84.679 130.179 84.6136C130.48 84.5455 130.783 84.4915 131.087 84.4517C131.485 84.4006 131.807 84.3622 132.054 84.3366C132.304 84.3082 132.486 84.2614 132.6 84.196C132.716 84.1307 132.775 84.017 132.775 83.8551V83.821C132.775 83.4006 132.659 83.0739 132.429 82.8409C132.202 82.608 131.857 82.4915 131.394 82.4915C130.914 82.4915 130.537 82.5966 130.265 82.8068C129.992 83.017 129.8 83.2415 129.689 83.4801L128.735 83.1392C128.905 82.7415 129.132 82.4318 129.417 82.2102C129.703 81.9858 130.016 81.8295 130.354 81.7415C130.695 81.6506 131.03 81.6051 131.36 81.6051C131.57 81.6051 131.811 81.6307 132.084 81.6818C132.36 81.7301 132.625 81.831 132.881 81.9844C133.14 82.1378 133.354 82.3693 133.525 82.679C133.695 82.9886 133.78 83.4034 133.78 83.9233V88.2358H132.775V87.3494H132.723C132.655 87.4915 132.542 87.6435 132.382 87.8054C132.223 87.9673 132.012 88.1051 131.748 88.2187C131.483 88.3324 131.161 88.3892 130.78 88.3892ZM130.934 87.4858C131.331 87.4858 131.667 87.4077 131.939 87.2514C132.215 87.0952 132.422 86.8935 132.561 86.6463C132.703 86.3991 132.775 86.1392 132.775 85.8665V84.946C132.732 84.9972 132.638 85.044 132.493 85.0866C132.351 85.1264 132.186 85.1619 131.999 85.1932C131.814 85.2216 131.634 85.2472 131.458 85.2699C131.284 85.2898 131.144 85.3068 131.036 85.321C130.775 85.3551 130.53 85.4105 130.303 85.4872C130.078 85.5611 129.897 85.6733 129.757 85.8239C129.621 85.9716 129.553 86.1733 129.553 86.429C129.553 86.7784 129.682 87.0426 129.941 87.2216C130.202 87.3977 130.533 87.4858 130.934 87.4858ZM138.462 81.6903V82.5426H135.07V81.6903H138.462ZM136.059 80.1222H137.065V86.3608C137.065 86.6449 137.106 86.858 137.188 87C137.273 87.1392 137.381 87.233 137.512 87.2812C137.646 87.3267 137.786 87.3494 137.934 87.3494C138.045 87.3494 138.136 87.3437 138.207 87.3324C138.278 87.3182 138.335 87.3068 138.377 87.2983L138.582 88.2017C138.513 88.2273 138.418 88.2528 138.296 88.2784C138.174 88.3068 138.019 88.321 137.832 88.321C137.548 88.321 137.269 88.2599 136.996 88.1378C136.727 88.0156 136.502 87.8295 136.323 87.5795C136.147 87.3295 136.059 87.0142 136.059 86.6335V80.1222ZM142.564 88.3722C141.973 88.3722 141.455 88.2315 141.009 87.9503C140.565 87.669 140.219 87.2756 139.969 86.7699C139.722 86.2642 139.598 85.6733 139.598 84.9972C139.598 84.3153 139.722 83.7202 139.969 83.2116C140.219 82.7031 140.565 82.3082 141.009 82.027C141.455 81.7457 141.973 81.6051 142.564 81.6051C143.155 81.6051 143.672 81.7457 144.115 82.027C144.561 82.3082 144.908 82.7031 145.155 83.2116C145.405 83.7202 145.53 84.3153 145.53 84.9972C145.53 85.6733 145.405 86.2642 145.155 86.7699C144.908 87.2756 144.561 87.669 144.115 87.9503C143.672 88.2315 143.155 88.3722 142.564 88.3722ZM142.564 87.4687C143.013 87.4687 143.382 87.3537 143.672 87.1236C143.962 86.8935 144.176 86.5909 144.315 86.2159C144.455 85.8409 144.524 85.4347 144.524 84.9972C144.524 84.5597 144.455 84.152 144.315 83.7741C144.176 83.3963 143.962 83.0909 143.672 82.858C143.382 82.625 143.013 82.5085 142.564 82.5085C142.115 82.5085 141.746 82.625 141.456 82.858C141.166 83.0909 140.952 83.3963 140.812 83.7741C140.673 84.152 140.604 84.5597 140.604 84.9972C140.604 85.4347 140.673 85.8409 140.812 86.2159C140.952 86.5909 141.166 86.8935 141.456 87.1236C141.746 87.3537 142.115 87.4687 142.564 87.4687ZM147.065 88.2358V81.6903H148.037V82.679H148.105C148.224 82.3551 148.44 82.0923 148.752 81.8906C149.065 81.6889 149.417 81.5881 149.809 81.5881C149.883 81.5881 149.975 81.5895 150.086 81.5923C150.197 81.5952 150.281 81.5994 150.338 81.6051V82.6278C150.304 82.6193 150.225 82.6065 150.103 82.5895C149.984 82.5696 149.858 82.5597 149.724 82.5597C149.406 82.5597 149.122 82.6264 148.872 82.7599C148.625 82.8906 148.429 83.0724 148.284 83.3054C148.142 83.5355 148.071 83.7983 148.071 84.0937V88.2358H147.065ZM156.166 83.1562L155.263 83.4119C155.206 83.2614 155.122 83.1151 155.011 82.973C154.903 82.8281 154.756 82.7088 154.568 82.6151C154.381 82.5213 154.141 82.4744 153.848 82.4744C153.447 82.4744 153.114 82.5668 152.847 82.7514C152.582 82.9332 152.45 83.1648 152.45 83.446C152.45 83.696 152.541 83.8935 152.723 84.0384C152.905 84.1832 153.189 84.304 153.575 84.4006L154.547 84.6392C155.132 84.7812 155.568 84.9986 155.855 85.2912C156.142 85.581 156.286 85.9545 156.286 86.4119C156.286 86.7869 156.178 87.1222 155.962 87.4176C155.749 87.7131 155.45 87.946 155.067 88.1165C154.683 88.2869 154.237 88.3722 153.729 88.3722C153.061 88.3722 152.509 88.2273 152.071 87.9375C151.634 87.6477 151.357 87.2244 151.24 86.6676L152.195 86.429C152.286 86.7812 152.457 87.0455 152.71 87.2216C152.966 87.3977 153.3 87.4858 153.712 87.4858C154.18 87.4858 154.553 87.3864 154.828 87.1875C155.107 86.9858 155.246 86.7443 155.246 86.4631C155.246 86.2358 155.166 86.0455 155.007 85.892C154.848 85.7358 154.604 85.6193 154.274 85.5426L153.183 85.2869C152.584 85.1449 152.143 84.9247 151.862 84.6264C151.584 84.3253 151.445 83.9489 151.445 83.4972C151.445 83.1278 151.548 82.8011 151.756 82.517C151.966 82.233 152.251 82.0099 152.612 81.848C152.976 81.6861 153.388 81.6051 153.848 81.6051C154.496 81.6051 155.004 81.7472 155.374 82.0312C155.746 82.3153 156.01 82.6903 156.166 83.1562Z" fill="#6E6E6E"/>
<defs>
<clipPath id="clip0_415_2308">
<rect width="40" height="40" fill="white" transform="translate(58.5)"/>
</clipPath>
<clipPath id="clip1_415_2308">
<rect width="7.19258" height="6.16507" fill="white" transform="translate(20.6076 48) rotate(15)"/>
</clipPath>
</defs>
</svg>
