<svg width="205" height="44" viewBox="0 0 205 44" fill="none" xmlns="http://www.w3.org/2000/svg">
<g clip-path="url(#clip0_415_2278)">
<path fill-rule="evenodd" clip-rule="evenodd" d="M24.3667 16.5596L22 19.3929C21.6917 19.7596 21.325 20.0596 20.9083 20.2762V20.8179C20.9083 21.4179 21.0583 22.0096 21.3417 22.5262H26.3667V15.3346C25.5917 15.5096 24.8833 15.9346 24.3667 16.5596ZM30.5083 28.7096L29.6333 27.9762H26.275C26.3333 28.2346 26.3667 28.5012 26.3667 28.7679V34.3429C26.3667 35.3429 25.55 36.1596 24.5417 36.1596H20.9083C19.9083 36.1596 19.0917 35.3429 19.0917 34.3429V27.9762H18.0667C16.9833 27.9762 15.9667 28.4596 15.275 29.2846L13.6333 31.2596V34.3429C13.6333 38.3596 16.8917 41.6179 20.9083 41.6179H24.5417C28.5583 41.6179 31.8167 38.3596 31.8167 34.3429V31.5012C31.8167 30.4179 31.3417 29.3929 30.5083 28.7096Z" fill="#FF6B57"/>
<path fill-rule="evenodd" clip-rule="evenodd" d="M26.3667 8.88457V11.9679L24.725 13.9429C24.0333 14.7679 23.0083 15.2512 21.9333 15.2512H20.9083V8.88457C20.9083 7.88457 20.0917 7.0679 19.0917 7.0679H15.45C14.45 7.0679 13.6333 7.88457 13.6333 8.88457V14.4596C13.6333 14.7262 13.6667 14.9929 13.725 15.2512C13.9 16.0262 14.325 16.7346 14.9417 17.2512L17.7833 19.6179C18.15 19.9262 18.4417 20.2929 18.6583 20.7012C18.9417 21.2179 19.0917 21.8012 19.0917 22.4096V22.9512C18.675 23.1679 18.3083 23.4679 18 23.8346L15.6333 26.6679C15.1167 27.2929 14.4083 27.7179 13.6333 27.8929V19.6846C13.6333 18.6012 13.1583 17.5762 12.325 16.8846L10.3667 15.2512L9.49165 14.5262C8.65832 13.8346 8.18332 12.8096 8.18332 11.7262V8.88457C8.18332 4.8679 11.4333 1.6179 15.45 1.6179H19.0917C23.1083 1.6179 26.3667 4.8679 26.3667 8.88457Z" fill="#FF6B57"/>
<path fill-rule="evenodd" clip-rule="evenodd" d="M40 17.0679V20.7012C40 24.7179 36.7417 27.9762 32.725 27.9762H18.0667C16.9833 27.9762 15.9667 28.4596 15.275 29.2846L13.6333 31.2596L12.9083 32.1262C12.2167 32.9512 11.1917 33.4346 10.1167 33.4346H7.275C3.25833 33.4346 0 30.1762 0 26.1596V22.5262C0 18.5096 3.25833 15.2512 7.275 15.2512H10.3667L12.325 16.8846C13.1583 17.5762 13.6333 18.6012 13.6333 19.6846V20.7012H7.275C6.26667 20.7012 5.45 21.5179 5.45 22.5262V26.1596C5.45 27.1679 6.26667 27.9762 7.275 27.9762H12.8417C13.1083 27.9762 13.375 27.9512 13.6333 27.8929C14.4083 27.7179 15.1167 27.2929 15.6333 26.6679L18 23.8346C18.3083 23.4679 18.675 23.1679 19.0917 22.9512C19.6083 22.6762 20.1917 22.5262 20.7917 22.5262H32.725C33.7333 22.5262 34.5417 21.7096 34.5417 20.7012V17.0679C34.5417 16.0679 33.7333 15.2512 32.725 15.2512H27.1583C26.8917 15.2512 26.625 15.2762 26.3667 15.3346C25.5917 15.5096 24.8833 15.9346 24.3667 16.5596L22 19.3929C21.6917 19.7596 21.325 20.0596 20.9083 20.2762C20.3917 20.5512 19.8083 20.7012 19.2083 20.7012H18.6583C18.4417 20.2929 18.15 19.9262 17.7833 19.6179L14.9417 17.2512C14.325 16.7346 13.9 16.0262 13.725 15.2512H21.9333C23.0083 15.2512 24.0333 14.7679 24.725 13.9429L26.3667 11.9679L27.0917 11.1012C27.7833 10.2762 28.8083 9.7929 29.8833 9.7929H32.725C36.7417 9.7929 40 13.0512 40 17.0679Z" fill="#0054E6"/>
</g>
<path d="M199.29 23.6655V16.2829C199.29 15.6766 199.208 15.1012 199.043 14.5566C198.879 14.0018 198.571 13.5548 198.119 13.2157C197.667 12.8664 196.999 12.6917 196.115 12.6917C195.406 12.6917 194.795 12.8099 194.281 13.0462C193.767 13.2722 193.346 13.5805 193.017 13.971C192.688 14.3614 192.421 14.793 192.216 15.2656L191.707 12.7071H192.216C192.431 11.9159 192.776 11.1915 193.248 10.5339C193.731 9.87632 194.394 9.34715 195.237 8.94642C196.079 8.54569 197.137 8.34532 198.412 8.34532C199.809 8.34532 200.96 8.60734 201.864 9.13137C202.768 9.64513 203.446 10.4003 203.898 11.397C204.351 12.3834 204.577 13.5959 204.577 15.0344V23.6655H199.29ZM174.907 23.6655V8.85394H180.178L179.993 13.262L180.178 14.1559V23.6655H174.907ZM187.099 23.6655V16.2829C187.099 15.615 187.006 15.0139 186.821 14.4796C186.647 13.935 186.333 13.5034 185.881 13.1849C185.429 12.8561 184.782 12.6917 183.939 12.6917C183.23 12.6917 182.619 12.8099 182.105 13.0462C181.591 13.2825 181.165 13.5959 180.826 13.9864C180.497 14.3768 180.235 14.8135 180.04 15.2964L179.423 12.6763H180.194C180.358 11.8851 180.682 11.1607 181.165 10.5031C181.648 9.84549 182.31 9.32146 183.153 8.93101C183.996 8.54055 185.033 8.34532 186.266 8.34532C188.065 8.34532 189.447 8.78715 190.412 9.67081C191.378 10.5442 191.964 11.7772 192.169 13.3699C192.211 13.5959 192.257 13.8785 192.308 14.2176C192.36 14.5566 192.385 14.8443 192.385 15.0807V23.6655H187.099Z" fill="#2D2D2D"/>
<path d="M165.908 23.6655L166.108 19.5195L166.047 18.8259V15.4814L166.016 14.7416C166.016 13.8888 165.666 13.2466 164.968 12.815C164.269 12.3732 163.149 12.1523 161.608 12.1523C160.21 12.1523 158.905 12.3064 157.693 12.6146C156.481 12.9126 155.325 13.262 154.225 13.6627L154.749 9.82494C155.386 9.54751 156.1 9.29578 156.892 9.06972C157.683 8.84367 158.541 8.65872 159.465 8.51487C160.4 8.37101 161.407 8.29909 162.486 8.29909C164.223 8.29909 165.651 8.48918 166.771 8.86936C167.901 9.24954 168.785 9.76843 169.422 10.426C170.059 11.0836 170.506 11.8389 170.763 12.6917C171.03 13.5445 171.164 14.4436 171.164 15.3889V23.6655H165.908ZM159.311 24.1433C157.369 24.1433 155.879 23.7529 154.842 22.972C153.814 22.1911 153.3 21.107 153.3 19.7199V19.5658C153.3 17.8806 153.927 16.6887 155.181 15.99C156.445 15.281 158.279 14.8341 160.683 14.6491L166.386 14.233L166.494 17.0227L161.053 17.5005C160.097 17.5827 159.424 17.7368 159.034 17.9628C158.643 18.1786 158.448 18.5177 158.448 18.9801V19.0417C158.448 19.463 158.643 19.7969 159.034 20.0436C159.424 20.2799 160.061 20.398 160.945 20.398C161.89 20.398 162.707 20.2799 163.396 20.0436C164.094 19.8072 164.67 19.499 165.122 19.1188C165.574 18.7283 165.908 18.3071 166.124 17.8549L167.018 19.9819H165.908C165.713 20.7525 165.369 21.4512 164.875 22.078C164.382 22.7048 163.683 23.2083 162.779 23.5885C161.885 23.9584 160.729 24.1433 159.311 24.1433Z" fill="#2D2D2D"/>
<path d="M146.638 2.87382C147.655 2.87382 148.631 2.94575 149.566 3.0896C150.512 3.23345 151.354 3.4184 152.094 3.64445L152.618 7.48221C151.981 7.30753 151.318 7.16882 150.63 7.06607C149.941 6.96332 149.196 6.91194 148.395 6.91194C147.439 6.91194 146.72 6.99414 146.237 7.15854C145.754 7.31267 145.431 7.53359 145.266 7.82129C145.112 8.09872 145.035 8.42238 145.035 8.79229V8.83853C145.035 9.08513 145.071 9.30604 145.143 9.50127C145.225 9.6965 145.328 9.87118 145.451 10.0253L142.076 10.2257V9.73246C141.47 9.53723 140.951 9.21357 140.519 8.76146C140.088 8.29908 139.872 7.65689 139.872 6.83488V6.77323C139.872 5.52994 140.406 4.56921 141.475 3.89106C142.543 3.2129 144.264 2.87382 146.638 2.87382ZM140.504 23.6655V11.3662H145.744V23.6655H140.504ZM137.822 13.8785V9.84035L142.785 9.902L144.665 9.84035H152.556L152.032 13.8785H137.822Z" fill="#2D2D2D"/>
<path d="M128.515 24.2358C126.861 24.2358 125.366 24.1022 124.03 23.8351C122.705 23.5782 121.564 23.2699 120.608 22.9103L120.054 18.7797C121.143 19.201 122.381 19.576 123.768 19.9048C125.165 20.2336 126.645 20.398 128.207 20.398C129.46 20.398 130.365 20.3056 130.92 20.1206C131.485 19.9357 131.767 19.5966 131.767 19.1034C131.767 18.754 131.634 18.4971 131.366 18.3327C131.11 18.1581 130.668 18.0348 130.041 17.9628C129.424 17.8806 128.567 17.7984 127.467 17.7162C125.556 17.5724 124.056 17.3206 122.967 16.961C121.877 16.6014 121.107 16.103 120.655 15.466C120.203 14.8186 119.977 14.0018 119.977 13.0154V12.9537C119.977 11.32 120.634 10.1229 121.949 9.36256C123.265 8.6022 125.232 8.22202 127.852 8.22202C129.455 8.22202 130.899 8.34532 132.183 8.59192C133.478 8.83853 134.588 9.13651 135.512 9.48586L136.037 13.2928C134.968 12.8921 133.771 12.5684 132.445 12.3218C131.12 12.0752 129.753 11.9519 128.346 11.9519C127.441 11.9519 126.748 11.9981 126.265 12.0906C125.792 12.1728 125.469 12.2961 125.294 12.4605C125.119 12.6249 125.032 12.8304 125.032 13.077C125.032 13.3544 125.119 13.5754 125.294 13.7398C125.469 13.9042 125.844 14.0377 126.419 14.1405C126.994 14.233 127.888 14.3306 129.101 14.4333C130.961 14.5772 132.466 14.7981 133.617 15.0961C134.778 15.3941 135.626 15.8513 136.16 16.4678C136.704 17.074 136.977 17.932 136.977 19.0417C136.977 20.881 136.278 22.2065 134.881 23.0182C133.493 23.8299 131.372 24.2358 128.515 24.2358Z" fill="#2D2D2D"/>
<path d="M112.389 23.6655L105.9 17.2847H104.714V14.4025H105.916L112.204 8.85394H118.893L110.478 16.1287V15.2348L119.202 23.6655H112.389ZM99.9511 23.6655V3.38244H105.222V23.6655H99.9511Z" fill="#2D2D2D"/>
<path d="M90.8015 23.6655V16.2829C90.8015 15.6458 90.7039 15.055 90.5087 14.5104C90.3134 13.9658 89.9589 13.5291 89.4452 13.2003C88.9417 12.8612 88.2225 12.6917 87.2874 12.6917C86.5065 12.6917 85.8335 12.8099 85.2684 13.0462C84.7135 13.2825 84.2511 13.5959 83.8812 13.9864C83.5113 14.3768 83.2236 14.8135 83.0181 15.2964L82.4324 12.6763H83.1568C83.352 11.8851 83.7065 11.1607 84.2203 10.5031C84.734 9.84549 85.4328 9.32146 86.3164 8.93101C87.2001 8.54055 88.2892 8.34532 89.5839 8.34532C91.0532 8.34532 92.2657 8.60734 93.2213 9.13137C94.1872 9.64513 94.9064 10.4003 95.3791 11.397C95.8517 12.3937 96.0881 13.6062 96.0881 15.0344V23.6655H90.8015ZM77.8857 23.6655V8.85394H83.1568L82.9565 13.5702L83.1568 14.0788V23.6655H77.8857Z" fill="#2D2D2D"/>
<path d="M68.5839 23.6655V8.85395H73.855V23.6655H68.5839Z" fill="#2D2D2D"/>
<path d="M53.4098 23.6655H48V3.96812H53.4098V23.6655ZM50.7589 19.35H65.5088V23.6655H50.7589V19.35Z" fill="#2D2D2D"/>
<g clip-path="url(#clip1_415_2278)">
<path d="M75.0294 3.82149C74.9108 4.30737 74.6414 4.70264 74.2634 5.0315C73.929 5.32216 73.5488 5.54808 73.1528 5.75042C72.3886 6.14099 71.597 6.47877 70.818 6.84097C70.575 6.95392 70.3758 6.90138 70.221 6.68184C69.7239 5.97575 69.2041 5.28377 68.7365 4.55895C68.4503 4.1152 68.1959 3.6564 68.0682 3.14436C67.9462 2.65459 67.9745 2.17791 68.1716 1.7142C68.3096 1.38944 68.5079 1.10858 68.7881 0.885879C69.2101 0.551107 69.6948 0.407294 70.2467 0.469374C70.7067 0.52112 71.098 0.707294 71.4167 1.03722C71.5971 1.22409 71.735 1.43825 71.8338 1.6742C71.8567 1.72886 71.87 1.73829 71.922 1.69952C72.2344 1.46691 72.5835 1.3123 72.984 1.28723C73.5768 1.2498 74.0894 1.44575 74.5076 1.85673C74.9719 2.31316 75.1334 2.87435 75.0847 3.49533C75.076 3.60516 75.0572 3.71452 75.0297 3.82156L75.0294 3.82149Z" fill="#FF6B57"/>
</g>
<path d="M56.4205 35.8722C56.4205 36.7926 56.2543 37.5881 55.9219 38.2585C55.5895 38.929 55.1335 39.446 54.554 39.8097C53.9744 40.1733 53.3125 40.3551 52.5682 40.3551C51.8239 40.3551 51.1619 40.1733 50.5824 39.8097C50.0028 39.446 49.5469 38.929 49.2145 38.2585C48.8821 37.5881 48.7159 36.7926 48.7159 35.8722C48.7159 34.9517 48.8821 34.1563 49.2145 33.4858C49.5469 32.8153 50.0028 32.2983 50.5824 31.9347C51.1619 31.571 51.8239 31.3892 52.5682 31.3892C53.3125 31.3892 53.9744 31.571 54.554 31.9347C55.1335 32.2983 55.5895 32.8153 55.9219 33.4858C56.2543 34.1563 56.4205 34.9517 56.4205 35.8722ZM55.3977 35.8722C55.3977 35.1165 55.2713 34.4787 55.0185 33.9588C54.7685 33.4389 54.429 33.0455 54 32.7784C53.5739 32.5114 53.0966 32.3778 52.5682 32.3778C52.0398 32.3778 51.5611 32.5114 51.1321 32.7784C50.706 33.0455 50.3665 33.4389 50.1136 33.9588C49.8636 34.4787 49.7386 35.1165 49.7386 35.8722C49.7386 36.6278 49.8636 37.2656 50.1136 37.7855C50.3665 38.3054 50.706 38.6989 51.1321 38.9659C51.5611 39.233 52.0398 39.3665 52.5682 39.3665C53.0966 39.3665 53.5739 39.233 54 38.9659C54.429 38.6989 54.7685 38.3054 55.0185 37.7855C55.2713 37.2656 55.3977 36.6278 55.3977 35.8722ZM59.0668 36.2983V40.2358H58.0611V33.6903H59.0327V34.7131H59.1179C59.2713 34.3807 59.5043 34.1136 59.8168 33.9119C60.1293 33.7074 60.5327 33.6051 61.027 33.6051C61.4702 33.6051 61.858 33.696 62.1903 33.8778C62.5227 34.0568 62.7813 34.3295 62.9659 34.696C63.1506 35.0597 63.2429 35.5199 63.2429 36.0767V40.2358H62.2372V36.1449C62.2372 35.6307 62.1037 35.2301 61.8366 34.9432C61.5696 34.6534 61.2031 34.5085 60.7372 34.5085C60.4162 34.5085 60.1293 34.5781 59.8764 34.7173C59.6264 34.8565 59.429 35.0597 59.2841 35.3267C59.1392 35.5938 59.0668 35.9176 59.0668 36.2983ZM67.8249 40.3722C67.1942 40.3722 66.6502 40.233 66.1928 39.9545C65.7383 39.6733 65.3874 39.2813 65.1403 38.7784C64.896 38.2727 64.7738 37.6847 64.7738 37.0142C64.7738 36.3438 64.896 35.7528 65.1403 35.2415C65.3874 34.7273 65.7312 34.3267 66.1715 34.0398C66.6147 33.75 67.1317 33.6051 67.7227 33.6051C68.0636 33.6051 68.4002 33.6619 68.7326 33.7756C69.065 33.8892 69.3675 34.0739 69.6403 34.3295C69.913 34.5824 70.1303 34.9176 70.2923 35.3352C70.4542 35.7528 70.5352 36.267 70.5352 36.8778V37.304H65.4897V36.4347H69.5124C69.5124 36.0653 69.4386 35.7358 69.2908 35.446C69.146 35.1563 68.9386 34.9276 68.6687 34.7599C68.4016 34.5923 68.0863 34.5085 67.7227 34.5085C67.3221 34.5085 66.9755 34.608 66.6829 34.8068C66.3931 35.0028 66.1701 35.2585 66.0138 35.5739C65.8576 35.8892 65.7795 36.2273 65.7795 36.5881V37.1676C65.7795 37.6619 65.8647 38.081 66.0352 38.4247C66.2085 38.7656 66.4485 39.0256 66.7553 39.2045C67.0621 39.3807 67.4187 39.4688 67.8249 39.4688C68.0891 39.4688 68.3278 39.4318 68.5408 39.358C68.7567 39.2813 68.9428 39.1676 69.0991 39.017C69.2553 38.8636 69.3761 38.6733 69.4613 38.446L70.4329 38.7188C70.3306 39.0483 70.1587 39.3381 69.9173 39.5881C69.6758 39.8352 69.3775 40.0284 69.0224 40.1676C68.6673 40.304 68.2681 40.3722 67.8249 40.3722ZM80.3491 33.6903C80.2979 33.2585 80.0906 32.9233 79.7269 32.6847C79.3633 32.446 78.9173 32.3267 78.3888 32.3267C78.0025 32.3267 77.6644 32.3892 77.3746 32.5142C77.0877 32.6392 76.8633 32.8111 76.7013 33.0298C76.5423 33.2486 76.4627 33.4972 76.4627 33.7756C76.4627 34.0085 76.5181 34.2088 76.6289 34.3764C76.7425 34.5412 76.8874 34.679 77.0636 34.7898C77.2397 34.8977 77.4244 34.9872 77.6175 35.0582C77.8107 35.1264 77.9883 35.1818 78.1502 35.2244L79.0366 35.4631C79.2638 35.5227 79.5167 35.6051 79.7951 35.7102C80.0763 35.8153 80.3448 35.9588 80.6005 36.1406C80.859 36.3196 81.0721 36.5497 81.2397 36.831C81.4073 37.1122 81.4911 37.4574 81.4911 37.8665C81.4911 38.3381 81.3675 38.7642 81.1204 39.1449C80.8761 39.5256 80.5181 39.8281 80.0465 40.0526C79.5778 40.277 79.0082 40.3892 78.3377 40.3892C77.7127 40.3892 77.1715 40.2884 76.7141 40.0867C76.2596 39.8849 75.9016 39.6037 75.6403 39.2429C75.3817 38.8821 75.2354 38.4631 75.2013 37.9858H76.2923C76.3207 38.3153 76.4315 38.5881 76.6246 38.804C76.8207 39.017 77.0678 39.1761 77.3661 39.2813C77.6673 39.3835 77.9911 39.4347 78.3377 39.4347C78.7411 39.4347 79.1033 39.3693 79.4244 39.2386C79.7454 39.1051 79.9996 38.9205 80.1871 38.6847C80.3746 38.446 80.4684 38.1676 80.4684 37.8494C80.4684 37.5597 80.3874 37.3239 80.2255 37.142C80.0636 36.9602 79.8505 36.8125 79.5863 36.6989C79.3221 36.5852 79.0366 36.4858 78.7298 36.4006L77.6559 36.0938C76.9741 35.8977 76.4343 35.6179 76.0366 35.2543C75.6388 34.8906 75.44 34.4148 75.44 33.8267C75.44 33.3381 75.5721 32.9119 75.8363 32.5483C76.1033 32.1818 76.4613 31.8977 76.9102 31.696C77.3619 31.4915 77.8661 31.3892 78.4229 31.3892C78.9854 31.3892 79.4854 31.4901 79.9229 31.6918C80.3604 31.8906 80.707 32.1634 80.9627 32.5099C81.2212 32.8565 81.3576 33.25 81.3718 33.6903H80.3491ZM85.9389 33.6903V34.5426H82.5469V33.6903H85.9389ZM83.5355 32.1222H84.5412V38.3608C84.5412 38.6449 84.5824 38.858 84.6648 39C84.75 39.1392 84.858 39.233 84.9886 39.2813C85.1222 39.3267 85.2628 39.3494 85.4105 39.3494C85.5213 39.3494 85.6122 39.3438 85.6832 39.3324C85.7543 39.3182 85.8111 39.3068 85.8537 39.2983L86.0582 40.2017C85.9901 40.2273 85.8949 40.2528 85.7727 40.2784C85.6506 40.3068 85.4957 40.321 85.3082 40.321C85.0241 40.321 84.7457 40.2599 84.473 40.1378C84.2031 40.0156 83.9787 39.8295 83.7997 39.5795C83.6236 39.3295 83.5355 39.0142 83.5355 38.6335V32.1222ZM90.0405 40.3722C89.4496 40.3722 88.9311 40.2315 88.4851 39.9503C88.0419 39.669 87.6953 39.2756 87.4453 38.7699C87.1982 38.2642 87.0746 37.6733 87.0746 36.9972C87.0746 36.3153 87.1982 35.7202 87.4453 35.2116C87.6953 34.7031 88.0419 34.3082 88.4851 34.027C88.9311 33.7457 89.4496 33.6051 90.0405 33.6051C90.6314 33.6051 91.1484 33.7457 91.5916 34.027C92.0376 34.3082 92.3842 34.7031 92.6314 35.2116C92.8814 35.7202 93.0064 36.3153 93.0064 36.9972C93.0064 37.6733 92.8814 38.2642 92.6314 38.7699C92.3842 39.2756 92.0376 39.669 91.5916 39.9503C91.1484 40.2315 90.6314 40.3722 90.0405 40.3722ZM90.0405 39.4688C90.4893 39.4688 90.8587 39.3537 91.1484 39.1236C91.4382 38.8935 91.6527 38.5909 91.7919 38.2159C91.9311 37.8409 92.0007 37.4347 92.0007 36.9972C92.0007 36.5597 91.9311 36.152 91.7919 35.7741C91.6527 35.3963 91.4382 35.0909 91.1484 34.858C90.8587 34.625 90.4893 34.5085 90.0405 34.5085C89.5916 34.5085 89.2223 34.625 88.9325 34.858C88.6428 35.0909 88.4283 35.3963 88.2891 35.7741C88.1499 36.152 88.0803 36.5597 88.0803 36.9972C88.0803 37.4347 88.1499 37.8409 88.2891 38.2159C88.4283 38.5909 88.6428 38.8935 88.9325 39.1236C89.2223 39.3537 89.5916 39.4688 90.0405 39.4688ZM94.5415 42.6903V33.6903H95.5131V34.7301H95.6325C95.7063 34.6165 95.8086 34.4716 95.9393 34.2955C96.0728 34.1165 96.2631 33.9574 96.5103 33.8182C96.7603 33.6761 97.0984 33.6051 97.5245 33.6051C98.0756 33.6051 98.5614 33.7429 98.9819 34.0185C99.4023 34.294 99.7305 34.6847 99.9663 35.1903C100.202 35.696 100.32 36.2926 100.32 36.9801C100.32 37.6733 100.202 38.2742 99.9663 38.7827C99.7305 39.2884 99.4038 39.6804 98.9862 39.9588C98.5685 40.2344 98.087 40.3722 97.5415 40.3722C97.1211 40.3722 96.7844 40.3026 96.5316 40.1634C96.2788 40.0213 96.0842 39.8608 95.9478 39.6818C95.8114 39.5 95.7063 39.3494 95.6325 39.2301H95.5472V42.6903H94.5415ZM95.5302 36.9631C95.5302 37.4574 95.6026 37.8935 95.7475 38.2713C95.8924 38.6463 96.104 38.9403 96.3825 39.1534C96.6609 39.3636 97.0018 39.4688 97.4052 39.4688C97.8256 39.4688 98.1765 39.358 98.4577 39.1364C98.7418 38.9119 98.9549 38.6108 99.0969 38.233C99.2418 37.8523 99.3143 37.429 99.3143 36.9631C99.3143 36.5028 99.2433 36.0881 99.1012 35.7188C98.962 35.3466 98.7504 35.0526 98.4663 34.8366C98.185 34.6179 97.8313 34.5085 97.4052 34.5085C96.9961 34.5085 96.6523 34.6122 96.3739 34.8196C96.0955 35.0242 95.8853 35.3111 95.7433 35.6804C95.6012 36.0469 95.5302 36.4744 95.5302 36.9631ZM110.138 33.6903C110.087 33.2585 109.88 32.9233 109.516 32.6847C109.152 32.446 108.706 32.3267 108.178 32.3267C107.792 32.3267 107.453 32.3892 107.164 32.5142C106.877 32.6392 106.652 32.8111 106.49 33.0298C106.331 33.2486 106.252 33.4972 106.252 33.7756C106.252 34.0085 106.307 34.2088 106.418 34.3764C106.532 34.5412 106.676 34.679 106.853 34.7898C107.029 34.8977 107.213 34.9872 107.407 35.0582C107.6 35.1264 107.777 35.1818 107.939 35.2244L108.826 35.4631C109.053 35.5227 109.306 35.6051 109.584 35.7102C109.865 35.8153 110.134 35.9588 110.39 36.1406C110.648 36.3196 110.861 36.5497 111.029 36.831C111.196 37.1122 111.28 37.4574 111.28 37.8665C111.28 38.3381 111.157 38.7642 110.909 39.1449C110.665 39.5256 110.307 39.8281 109.836 40.0526C109.367 40.277 108.797 40.3892 108.127 40.3892C107.502 40.3892 106.961 40.2884 106.503 40.0867C106.049 39.8849 105.691 39.6037 105.429 39.2429C105.171 38.8821 105.025 38.4631 104.99 37.9858H106.081C106.11 38.3153 106.221 38.5881 106.414 38.804C106.61 39.017 106.857 39.1761 107.155 39.2813C107.456 39.3835 107.78 39.4347 108.127 39.4347C108.53 39.4347 108.892 39.3693 109.213 39.2386C109.534 39.1051 109.789 38.9205 109.976 38.6847C110.164 38.446 110.257 38.1676 110.257 37.8494C110.257 37.5597 110.176 37.3239 110.015 37.142C109.853 36.9602 109.64 36.8125 109.375 36.6989C109.111 36.5852 108.826 36.4858 108.519 36.4006L107.445 36.0938C106.763 35.8977 106.223 35.6179 105.826 35.2543C105.428 34.8906 105.229 34.4148 105.229 33.8267C105.229 33.3381 105.361 32.9119 105.625 32.5483C105.892 32.1818 106.25 31.8977 106.699 31.696C107.151 31.4915 107.655 31.3892 108.212 31.3892C108.775 31.3892 109.275 31.4901 109.712 31.6918C110.15 31.8906 110.496 32.1634 110.752 32.5099C111.01 32.8565 111.147 33.25 111.161 33.6903H110.138ZM113.887 36.2983V40.2358H112.881V31.5085H113.887V34.7131H113.972C114.126 34.375 114.356 34.1065 114.663 33.9077C114.972 33.706 115.384 33.6051 115.898 33.6051C116.344 33.6051 116.735 33.6946 117.07 33.8736C117.406 34.0497 117.665 34.321 117.85 34.6875C118.038 35.0511 118.131 35.5142 118.131 36.0767V40.2358H117.126V36.1449C117.126 35.625 116.991 35.223 116.721 34.9389C116.454 34.652 116.083 34.5085 115.609 34.5085C115.279 34.5085 114.984 34.5781 114.722 34.7173C114.464 34.8565 114.259 35.0597 114.109 35.3267C113.961 35.5938 113.887 35.9176 113.887 36.2983ZM122.63 40.3722C122.039 40.3722 121.521 40.2315 121.075 39.9503C120.632 39.669 120.285 39.2756 120.035 38.7699C119.788 38.2642 119.664 37.6733 119.664 36.9972C119.664 36.3153 119.788 35.7202 120.035 35.2116C120.285 34.7031 120.632 34.3082 121.075 34.027C121.521 33.7457 122.039 33.6051 122.63 33.6051C123.221 33.6051 123.738 33.7457 124.181 34.027C124.627 34.3082 124.974 34.7031 125.221 35.2116C125.471 35.7202 125.596 36.3153 125.596 36.9972C125.596 37.6733 125.471 38.2642 125.221 38.7699C124.974 39.2756 124.627 39.669 124.181 39.9503C123.738 40.2315 123.221 40.3722 122.63 40.3722ZM122.63 39.4688C123.079 39.4688 123.449 39.3537 123.738 39.1236C124.028 38.8935 124.243 38.5909 124.382 38.2159C124.521 37.8409 124.591 37.4347 124.591 36.9972C124.591 36.5597 124.521 36.152 124.382 35.7741C124.243 35.3963 124.028 35.0909 123.738 34.858C123.449 34.625 123.079 34.5085 122.63 34.5085C122.181 34.5085 121.812 34.625 121.522 34.858C121.233 35.0909 121.018 35.3963 120.879 35.7741C120.74 36.152 120.67 36.5597 120.67 36.9972C120.67 37.4347 120.74 37.8409 120.879 38.2159C121.018 38.5909 121.233 38.8935 121.522 39.1236C121.812 39.3537 122.181 39.4688 122.63 39.4688ZM127.131 42.6903V33.6903H128.103V34.7301H128.222C128.296 34.6165 128.398 34.4716 128.529 34.2955C128.663 34.1165 128.853 33.9574 129.1 33.8182C129.35 33.6761 129.688 33.6051 130.114 33.6051C130.665 33.6051 131.151 33.7429 131.572 34.0185C131.992 34.294 132.32 34.6847 132.556 35.1903C132.792 35.696 132.91 36.2926 132.91 36.9801C132.91 37.6733 132.792 38.2742 132.556 38.7827C132.32 39.2884 131.994 39.6804 131.576 39.9588C131.158 40.2344 130.677 40.3722 130.131 40.3722C129.711 40.3722 129.374 40.3026 129.121 40.1634C128.869 40.0213 128.674 39.8608 128.538 39.6818C128.401 39.5 128.296 39.3494 128.222 39.2301H128.137V42.6903H127.131ZM128.12 36.9631C128.12 37.4574 128.192 37.8935 128.337 38.2713C128.482 38.6463 128.694 38.9403 128.972 39.1534C129.251 39.3636 129.592 39.4688 129.995 39.4688C130.415 39.4688 130.766 39.358 131.048 39.1364C131.332 38.9119 131.545 38.6108 131.687 38.233C131.832 37.8523 131.904 37.429 131.904 36.9631C131.904 36.5028 131.833 36.0881 131.691 35.7188C131.552 35.3466 131.34 35.0526 131.056 34.8366C130.775 34.6179 130.421 34.5085 129.995 34.5085C129.586 34.5085 129.242 34.6122 128.964 34.8196C128.685 35.0242 128.475 35.3111 128.333 35.6804C128.191 36.0469 128.12 36.4744 128.12 36.9631ZM140.734 33.6903V34.5426H137.205V33.6903H140.734ZM138.262 40.2358V32.7869C138.262 32.4119 138.35 32.0994 138.526 31.8494C138.702 31.5994 138.931 31.4119 139.212 31.2869C139.494 31.1619 139.79 31.0994 140.103 31.0994C140.35 31.0994 140.552 31.1193 140.708 31.1591C140.864 31.1989 140.981 31.2358 141.058 31.2699L140.768 32.1392C140.717 32.1222 140.646 32.1009 140.555 32.0753C140.467 32.0497 140.35 32.0369 140.205 32.0369C139.873 32.0369 139.633 32.1207 139.485 32.2884C139.34 32.456 139.268 32.7017 139.268 33.0256V40.2358H138.262ZM144.533 40.3722C143.942 40.3722 143.423 40.2315 142.977 39.9503C142.534 39.669 142.188 39.2756 141.938 38.7699C141.69 38.2642 141.567 37.6733 141.567 36.9972C141.567 36.3153 141.69 35.7202 141.938 35.2116C142.188 34.7031 142.534 34.3082 142.977 34.027C143.423 33.7457 143.942 33.6051 144.533 33.6051C145.124 33.6051 145.641 33.7457 146.084 34.027C146.53 34.3082 146.876 34.7031 147.124 35.2116C147.374 35.7202 147.499 36.3153 147.499 36.9972C147.499 37.6733 147.374 38.2642 147.124 38.7699C146.876 39.2756 146.53 39.669 146.084 39.9503C145.641 40.2315 145.124 40.3722 144.533 40.3722ZM144.533 39.4688C144.982 39.4688 145.351 39.3537 145.641 39.1236C145.93 38.8935 146.145 38.5909 146.284 38.2159C146.423 37.8409 146.493 37.4347 146.493 36.9972C146.493 36.5597 146.423 36.152 146.284 35.7741C146.145 35.3963 145.93 35.0909 145.641 34.858C145.351 34.625 144.982 34.5085 144.533 34.5085C144.084 34.5085 143.714 34.625 143.425 34.858C143.135 35.0909 142.92 35.3963 142.781 35.7741C142.642 36.152 142.572 36.5597 142.572 36.9972C142.572 37.4347 142.642 37.8409 142.781 38.2159C142.92 38.5909 143.135 38.8935 143.425 39.1236C143.714 39.3537 144.084 39.4688 144.533 39.4688ZM149.034 40.2358V33.6903H150.005V34.679H150.074C150.193 34.3551 150.409 34.0923 150.721 33.8906C151.034 33.6889 151.386 33.5881 151.778 33.5881C151.852 33.5881 151.944 33.5895 152.055 33.5923C152.166 33.5952 152.25 33.5994 152.306 33.6051V34.6278C152.272 34.6193 152.194 34.6065 152.072 34.5895C151.953 34.5696 151.826 34.5597 151.693 34.5597C151.375 34.5597 151.091 34.6264 150.841 34.7599C150.593 34.8906 150.397 35.0724 150.252 35.3054C150.11 35.5355 150.039 35.7983 150.039 36.0938V40.2358H149.034ZM164.033 34.2358H162.976C162.913 33.9318 162.804 33.6648 162.648 33.4347C162.494 33.2045 162.307 33.0114 162.085 32.8551C161.866 32.696 161.624 32.5767 161.357 32.4972C161.089 32.4176 160.811 32.3778 160.521 32.3778C159.993 32.3778 159.514 32.5114 159.085 32.7784C158.659 33.0455 158.32 33.4389 158.067 33.9588C157.817 34.4787 157.692 35.1165 157.692 35.8722C157.692 36.6278 157.817 37.2656 158.067 37.7855C158.32 38.3054 158.659 38.6989 159.085 38.9659C159.514 39.233 159.993 39.3665 160.521 39.3665C160.811 39.3665 161.089 39.3267 161.357 39.2472C161.624 39.1676 161.866 39.0497 162.085 38.8935C162.307 38.7344 162.494 38.5398 162.648 38.3097C162.804 38.0767 162.913 37.8097 162.976 37.5085H164.033C163.953 37.9545 163.808 38.3537 163.598 38.706C163.388 39.0582 163.126 39.358 162.814 39.6051C162.501 39.8494 162.151 40.0355 161.761 40.1634C161.375 40.2912 160.962 40.3551 160.521 40.3551C159.777 40.3551 159.115 40.1733 158.536 39.8097C157.956 39.446 157.5 38.929 157.168 38.2585C156.835 37.5881 156.669 36.7926 156.669 35.8722C156.669 34.9517 156.835 34.1563 157.168 33.4858C157.5 32.8153 157.956 32.2983 158.536 31.9347C159.115 31.571 159.777 31.3892 160.521 31.3892C160.962 31.3892 161.375 31.4531 161.761 31.581C162.151 31.7088 162.501 31.8963 162.814 32.1435C163.126 32.3878 163.388 32.6861 163.598 33.0384C163.808 33.3878 163.953 33.7869 164.033 34.2358ZM165.604 40.2358V33.6903H166.576V34.679H166.644C166.763 34.3551 166.979 34.0923 167.292 33.8906C167.604 33.6889 167.956 33.5881 168.348 33.5881C168.422 33.5881 168.515 33.5895 168.625 33.5923C168.736 33.5952 168.82 33.5994 168.877 33.6051V34.6278C168.843 34.6193 168.765 34.6065 168.642 34.5895C168.523 34.5696 168.397 34.5597 168.263 34.5597C167.945 34.5597 167.661 34.6264 167.411 34.7599C167.164 34.8906 166.968 35.0724 166.823 35.3054C166.681 35.5355 166.61 35.7983 166.61 36.0938V40.2358H165.604ZM172.614 40.3722C171.983 40.3722 171.439 40.233 170.982 39.9545C170.527 39.6733 170.176 39.2813 169.929 38.7784C169.685 38.2727 169.563 37.6847 169.563 37.0142C169.563 36.3438 169.685 35.7528 169.929 35.2415C170.176 34.7273 170.52 34.3267 170.961 34.0398C171.404 33.75 171.921 33.6051 172.512 33.6051C172.853 33.6051 173.189 33.6619 173.522 33.7756C173.854 33.8892 174.157 34.0739 174.429 34.3295C174.702 34.5824 174.919 34.9176 175.081 35.3352C175.243 35.7528 175.324 36.267 175.324 36.8778V37.304H170.279V36.4347H174.301C174.301 36.0653 174.228 35.7358 174.08 35.446C173.935 35.1563 173.728 34.9276 173.458 34.7599C173.191 34.5923 172.875 34.5085 172.512 34.5085C172.111 34.5085 171.765 34.608 171.472 34.8068C171.182 35.0028 170.959 35.2585 170.803 35.5739C170.647 35.8892 170.569 36.2273 170.569 36.5881V37.1676C170.569 37.6619 170.654 38.081 170.824 38.4247C170.998 38.7656 171.238 39.0256 171.544 39.2045C171.851 39.3807 172.208 39.4688 172.614 39.4688C172.878 39.4688 173.117 39.4318 173.33 39.358C173.546 39.2813 173.732 39.1676 173.888 39.017C174.044 38.8636 174.165 38.6733 174.25 38.446L175.222 38.7188C175.12 39.0483 174.948 39.3381 174.706 39.5881C174.465 39.8352 174.167 40.0284 173.811 40.1676C173.456 40.304 173.057 40.3722 172.614 40.3722ZM178.78 40.3892C178.365 40.3892 177.989 40.3111 177.651 40.1548C177.313 39.9957 177.044 39.767 176.846 39.4688C176.647 39.1676 176.547 38.804 176.547 38.3778C176.547 38.0028 176.621 37.6989 176.769 37.4659C176.917 37.2301 177.114 37.0455 177.361 36.9119C177.608 36.7784 177.881 36.679 178.179 36.6136C178.48 36.5455 178.783 36.4915 179.087 36.4517C179.485 36.4006 179.807 36.3622 180.054 36.3366C180.304 36.3082 180.486 36.2614 180.6 36.196C180.716 36.1307 180.775 36.017 180.775 35.8551V35.821C180.775 35.4006 180.659 35.0739 180.429 34.8409C180.202 34.608 179.857 34.4915 179.394 34.4915C178.914 34.4915 178.537 34.5966 178.265 34.8068C177.992 35.017 177.8 35.2415 177.689 35.4801L176.735 35.1392C176.905 34.7415 177.132 34.4318 177.417 34.2102C177.703 33.9858 178.016 33.8295 178.354 33.7415C178.695 33.6506 179.03 33.6051 179.36 33.6051C179.57 33.6051 179.811 33.6307 180.084 33.6818C180.36 33.7301 180.625 33.831 180.881 33.9844C181.14 34.1378 181.354 34.3693 181.525 34.679C181.695 34.9886 181.78 35.4034 181.78 35.9233V40.2358H180.775V39.3494H180.723C180.655 39.4915 180.542 39.6435 180.382 39.8054C180.223 39.9673 180.012 40.1051 179.748 40.2188C179.483 40.3324 179.161 40.3892 178.78 40.3892ZM178.934 39.4858C179.331 39.4858 179.667 39.4077 179.939 39.2514C180.215 39.0952 180.422 38.8935 180.561 38.6463C180.703 38.3992 180.775 38.1392 180.775 37.8665V36.946C180.732 36.9972 180.638 37.044 180.493 37.0866C180.351 37.1264 180.186 37.1619 179.999 37.1932C179.814 37.2216 179.634 37.2472 179.458 37.2699C179.284 37.2898 179.144 37.3068 179.036 37.321C178.775 37.3551 178.53 37.4105 178.303 37.4872C178.078 37.5611 177.897 37.6733 177.757 37.8239C177.621 37.9716 177.553 38.1733 177.553 38.429C177.553 38.7784 177.682 39.0426 177.941 39.2216C178.202 39.3977 178.533 39.4858 178.934 39.4858ZM186.462 33.6903V34.5426H183.07V33.6903H186.462ZM184.059 32.1222H185.065V38.3608C185.065 38.6449 185.106 38.858 185.188 39C185.273 39.1392 185.381 39.233 185.512 39.2813C185.646 39.3267 185.786 39.3494 185.934 39.3494C186.045 39.3494 186.136 39.3438 186.207 39.3324C186.278 39.3182 186.335 39.3068 186.377 39.2983L186.582 40.2017C186.513 40.2273 186.418 40.2528 186.296 40.2784C186.174 40.3068 186.019 40.321 185.832 40.321C185.548 40.321 185.269 40.2599 184.996 40.1378C184.727 40.0156 184.502 39.8295 184.323 39.5795C184.147 39.3295 184.059 39.0142 184.059 38.6335V32.1222ZM190.564 40.3722C189.973 40.3722 189.455 40.2315 189.009 39.9503C188.565 39.669 188.219 39.2756 187.969 38.7699C187.722 38.2642 187.598 37.6733 187.598 36.9972C187.598 36.3153 187.722 35.7202 187.969 35.2116C188.219 34.7031 188.565 34.3082 189.009 34.027C189.455 33.7457 189.973 33.6051 190.564 33.6051C191.155 33.6051 191.672 33.7457 192.115 34.027C192.561 34.3082 192.908 34.7031 193.155 35.2116C193.405 35.7202 193.53 36.3153 193.53 36.9972C193.53 37.6733 193.405 38.2642 193.155 38.7699C192.908 39.2756 192.561 39.669 192.115 39.9503C191.672 40.2315 191.155 40.3722 190.564 40.3722ZM190.564 39.4688C191.013 39.4688 191.382 39.3537 191.672 39.1236C191.962 38.8935 192.176 38.5909 192.315 38.2159C192.455 37.8409 192.524 37.4347 192.524 36.9972C192.524 36.5597 192.455 36.152 192.315 35.7741C192.176 35.3963 191.962 35.0909 191.672 34.858C191.382 34.625 191.013 34.5085 190.564 34.5085C190.115 34.5085 189.746 34.625 189.456 34.858C189.166 35.0909 188.952 35.3963 188.812 35.7741C188.673 36.152 188.604 36.5597 188.604 36.9972C188.604 37.4347 188.673 37.8409 188.812 38.2159C188.952 38.5909 189.166 38.8935 189.456 39.1236C189.746 39.3537 190.115 39.4688 190.564 39.4688ZM195.065 40.2358V33.6903H196.037V34.679H196.105C196.224 34.3551 196.44 34.0923 196.752 33.8906C197.065 33.6889 197.417 33.5881 197.809 33.5881C197.883 33.5881 197.975 33.5895 198.086 33.5923C198.197 33.5952 198.281 33.5994 198.338 33.6051V34.6278C198.304 34.6193 198.225 34.6065 198.103 34.5895C197.984 34.5696 197.858 34.5597 197.724 34.5597C197.406 34.5597 197.122 34.6264 196.872 34.7599C196.625 34.8906 196.429 35.0724 196.284 35.3054C196.142 35.5355 196.071 35.7983 196.071 36.0938V40.2358H195.065ZM204.166 35.1563L203.263 35.4119C203.206 35.2614 203.122 35.1151 203.011 34.973C202.903 34.8281 202.756 34.7088 202.568 34.6151C202.381 34.5213 202.141 34.4744 201.848 34.4744C201.447 34.4744 201.114 34.5668 200.847 34.7514C200.582 34.9332 200.45 35.1648 200.45 35.446C200.45 35.696 200.541 35.8935 200.723 36.0384C200.905 36.1832 201.189 36.304 201.575 36.4006L202.547 36.6392C203.132 36.7813 203.568 36.9986 203.855 37.2912C204.142 37.581 204.286 37.9545 204.286 38.4119C204.286 38.7869 204.178 39.1222 203.962 39.4176C203.749 39.7131 203.45 39.946 203.067 40.1165C202.683 40.2869 202.237 40.3722 201.729 40.3722C201.061 40.3722 200.509 40.2273 200.071 39.9375C199.634 39.6477 199.357 39.2244 199.24 38.6676L200.195 38.429C200.286 38.7813 200.457 39.0455 200.71 39.2216C200.966 39.3977 201.3 39.4858 201.712 39.4858C202.18 39.4858 202.553 39.3864 202.828 39.1875C203.107 38.9858 203.246 38.7443 203.246 38.4631C203.246 38.2358 203.166 38.0455 203.007 37.892C202.848 37.7358 202.604 37.6193 202.274 37.5426L201.183 37.2869C200.584 37.1449 200.143 36.9247 199.862 36.6264C199.584 36.3253 199.445 35.9489 199.445 35.4972C199.445 35.1278 199.548 34.8011 199.756 34.517C199.966 34.233 200.251 34.0099 200.612 33.848C200.976 33.6861 201.388 33.6051 201.848 33.6051C202.496 33.6051 203.004 33.7472 203.374 34.0313C203.746 34.3153 204.01 34.6903 204.166 35.1563Z" fill="#6E6E6E"/>
<defs>
<clipPath id="clip0_415_2278">
<rect width="40" height="40" fill="white" transform="translate(0 1.6179)"/>
</clipPath>
<clipPath id="clip1_415_2278">
<rect width="7.19258" height="6.16507" fill="white" transform="translate(68.6076 -3.8147e-06) rotate(15)"/>
</clipPath>
</defs>
</svg>
